<?xml version="1.0" encoding="UTF-8"?>
<!DOCTYPE svg PUBLIC "-//W3C//DTD SVG 1.1//EN" "http://www.w3.org/Graphics/SVG/1.1/DTD/svg11.dtd">
<!-- Creator: CorelDRAW 2019 (64-Bit) -->
<svg xmlns="http://www.w3.org/2000/svg" xml:space="preserve" width="9.5in" height="11in" version="1.1" shape-rendering="geometricPrecision" text-rendering="geometricPrecision" image-rendering="optimizeQuality" fill-rule="evenodd" clip-rule="evenodd"
viewBox="500 0 8500 11000"
 xmlns:xlink="http://www.w3.org/1999/xlink">
 <g id="Star_x0020_Sprokets">
  <metadata id="CorelCorpID_0Corel-Layer"/>
  <g id="_2661572934096">
   <polygon fill="#B3B3B3" points="245.28,160.63 256.89,170.81 271.08,164.71 278.97,178 294.36,176.57 297.76,191.65 312.83,195.05 311.41,210.43 324.69,218.32 318.59,232.52 328.78,244.13 318.59,255.74 324.69,269.93 311.41,277.82 312.83,293.2 297.76,296.61 294.36,311.68 278.97,310.26 271.08,323.54 256.89,317.44 245.28,327.63 233.67,317.44 219.48,323.54 211.59,310.26 196.2,311.68 192.8,296.61 177.73,293.2 179.15,277.82 165.87,269.93 171.97,255.74 161.78,244.13 171.97,232.52 165.87,218.32 179.15,210.43 177.73,195.05 192.8,191.65 196.2,176.57 211.59,178 219.48,164.71 233.67,170.81 "/>
   <polygon fill="#B3B3B3" points="245.28,660.63 256.89,670.81 271.08,664.71 278.97,678 294.36,676.57 297.76,691.65 312.83,695.05 311.41,710.43 324.69,718.32 318.59,732.52 328.78,744.13 318.59,755.74 324.69,769.93 311.41,777.82 312.83,793.2 297.76,796.61 294.36,811.68 278.97,810.26 271.08,823.54 256.89,817.44 245.28,827.63 233.67,817.44 219.48,823.54 211.59,810.26 196.2,811.68 192.8,796.61 177.73,793.2 179.15,777.82 165.87,769.93 171.97,755.74 161.78,744.13 171.97,732.52 165.87,718.32 179.15,710.43 177.73,695.05 192.8,691.65 196.2,676.57 211.59,678 219.48,664.71 233.67,670.81 "/>
   <polygon fill="#B3B3B3" points="245.28,1160.63 256.89,1170.81 271.08,1164.71 278.97,1178 294.36,1176.57 297.76,1191.65 312.83,1195.05 311.41,1210.43 324.69,1218.32 318.59,1232.52 328.78,1244.13 318.59,1255.74 324.69,1269.93 311.41,1277.82 312.83,1293.2 297.76,1296.61 294.36,1311.68 278.97,1310.26 271.08,1323.54 256.89,1317.44 245.28,1327.63 233.67,1317.44 219.48,1323.54 211.59,1310.26 196.2,1311.68 192.8,1296.61 177.73,1293.2 179.15,1277.82 165.87,1269.93 171.97,1255.74 161.78,1244.13 171.97,1232.52 165.87,1218.32 179.15,1210.43 177.73,1195.05 192.8,1191.65 196.2,1176.57 211.59,1178 219.48,1164.71 233.67,1170.81 "/>
   <polygon fill="#B3B3B3" points="245.28,1660.63 256.89,1670.81 271.08,1664.71 278.97,1678 294.36,1676.57 297.76,1691.65 312.83,1695.05 311.41,1710.43 324.69,1718.32 318.59,1732.52 328.78,1744.13 318.59,1755.74 324.69,1769.93 311.41,1777.82 312.83,1793.2 297.76,1796.61 294.36,1811.68 278.97,1810.26 271.08,1823.54 256.89,1817.44 245.28,1827.63 233.67,1817.44 219.48,1823.54 211.59,1810.26 196.2,1811.68 192.8,1796.61 177.73,1793.2 179.15,1777.82 165.87,1769.93 171.97,1755.74 161.78,1744.13 171.97,1732.52 165.87,1718.32 179.15,1710.43 177.73,1695.05 192.8,1691.65 196.2,1676.57 211.59,1678 219.48,1664.71 233.67,1670.81 "/>
   <polygon fill="#B3B3B3" points="245.28,2160.63 256.89,2170.81 271.08,2164.71 278.97,2178 294.36,2176.57 297.76,2191.65 312.83,2195.05 311.41,2210.43 324.69,2218.32 318.59,2232.52 328.78,2244.13 318.59,2255.74 324.69,2269.93 311.41,2277.82 312.83,2293.2 297.76,2296.61 294.36,2311.68 278.97,2310.26 271.08,2323.54 256.89,2317.44 245.28,2327.63 233.67,2317.44 219.48,2323.54 211.59,2310.26 196.2,2311.68 192.8,2296.61 177.73,2293.2 179.15,2277.82 165.87,2269.93 171.97,2255.74 161.78,2244.13 171.97,2232.52 165.87,2218.32 179.15,2210.43 177.73,2195.05 192.8,2191.65 196.2,2176.57 211.59,2178 219.48,2164.71 233.67,2170.81 "/>
   <polygon fill="#B3B3B3" points="245.28,2660.63 256.89,2670.81 271.08,2664.71 278.97,2678 294.36,2676.57 297.76,2691.65 312.83,2695.05 311.41,2710.43 324.69,2718.32 318.59,2732.52 328.78,2744.13 318.59,2755.74 324.69,2769.93 311.41,2777.82 312.83,2793.2 297.76,2796.61 294.36,2811.68 278.97,2810.26 271.08,2823.54 256.89,2817.44 245.28,2827.63 233.67,2817.44 219.48,2823.54 211.59,2810.26 196.2,2811.68 192.8,2796.61 177.73,2793.2 179.15,2777.82 165.87,2769.93 171.97,2755.74 161.78,2744.13 171.97,2732.52 165.87,2718.32 179.15,2710.43 177.73,2695.05 192.8,2691.65 196.2,2676.57 211.59,2678 219.48,2664.71 233.67,2670.81 "/>
   <polygon fill="#B3B3B3" points="245.28,3160.63 256.89,3170.81 271.08,3164.71 278.97,3178 294.36,3176.57 297.76,3191.65 312.83,3195.05 311.41,3210.43 324.69,3218.32 318.59,3232.52 328.78,3244.13 318.59,3255.74 324.69,3269.93 311.41,3277.82 312.83,3293.2 297.76,3296.61 294.36,3311.68 278.97,3310.26 271.08,3323.54 256.89,3317.44 245.28,3327.63 233.67,3317.44 219.48,3323.54 211.59,3310.26 196.2,3311.68 192.8,3296.61 177.73,3293.2 179.15,3277.82 165.87,3269.93 171.97,3255.74 161.78,3244.13 171.97,3232.52 165.87,3218.32 179.15,3210.43 177.73,3195.05 192.8,3191.65 196.2,3176.57 211.59,3178 219.48,3164.71 233.67,3170.81 "/>
   <polygon fill="#B3B3B3" points="245.28,3660.63 256.89,3670.81 271.08,3664.71 278.97,3678 294.36,3676.57 297.76,3691.65 312.83,3695.05 311.41,3710.43 324.69,3718.32 318.59,3732.52 328.78,3744.13 318.59,3755.74 324.69,3769.93 311.41,3777.82 312.83,3793.2 297.76,3796.61 294.36,3811.68 278.97,3810.26 271.08,3823.54 256.89,3817.44 245.28,3827.63 233.67,3817.44 219.48,3823.54 211.59,3810.26 196.2,3811.68 192.8,3796.61 177.73,3793.2 179.15,3777.82 165.87,3769.93 171.97,3755.74 161.78,3744.13 171.97,3732.52 165.87,3718.32 179.15,3710.43 177.73,3695.05 192.8,3691.65 196.2,3676.57 211.59,3678 219.48,3664.71 233.67,3670.81 "/>
   <polygon fill="#B3B3B3" points="245.28,4160.63 256.89,4170.81 271.08,4164.71 278.97,4178 294.36,4176.57 297.76,4191.65 312.83,4195.05 311.41,4210.43 324.69,4218.32 318.59,4232.52 328.78,4244.13 318.59,4255.74 324.69,4269.93 311.41,4277.82 312.83,4293.2 297.76,4296.61 294.36,4311.68 278.97,4310.26 271.08,4323.54 256.89,4317.44 245.28,4327.63 233.67,4317.44 219.48,4323.54 211.59,4310.26 196.2,4311.68 192.8,4296.61 177.73,4293.2 179.15,4277.82 165.87,4269.93 171.97,4255.74 161.78,4244.13 171.97,4232.52 165.87,4218.32 179.15,4210.43 177.73,4195.05 192.8,4191.65 196.2,4176.57 211.59,4178 219.48,4164.71 233.67,4170.81 "/>
   <polygon fill="#B3B3B3" points="245.28,4660.63 256.89,4670.81 271.08,4664.71 278.97,4678 294.36,4676.57 297.76,4691.65 312.83,4695.05 311.41,4710.43 324.69,4718.32 318.59,4732.52 328.78,4744.13 318.59,4755.74 324.69,4769.93 311.41,4777.82 312.83,4793.2 297.76,4796.61 294.36,4811.68 278.97,4810.26 271.08,4823.54 256.89,4817.44 245.28,4827.63 233.67,4817.44 219.48,4823.54 211.59,4810.26 196.2,4811.68 192.8,4796.61 177.73,4793.2 179.15,4777.82 165.87,4769.93 171.97,4755.74 161.78,4744.13 171.97,4732.52 165.87,4718.32 179.15,4710.43 177.73,4695.05 192.8,4691.65 196.2,4676.57 211.59,4678 219.48,4664.71 233.67,4670.81 "/>
   <polygon fill="#B3B3B3" points="245.28,5160.63 256.89,5170.81 271.08,5164.71 278.97,5178 294.36,5176.57 297.76,5191.65 312.83,5195.05 311.41,5210.43 324.69,5218.32 318.59,5232.52 328.78,5244.13 318.59,5255.74 324.69,5269.93 311.41,5277.82 312.83,5293.2 297.76,5296.61 294.36,5311.68 278.97,5310.26 271.08,5323.54 256.89,5317.44 245.28,5327.63 233.67,5317.44 219.48,5323.54 211.59,5310.26 196.2,5311.68 192.8,5296.61 177.73,5293.2 179.15,5277.82 165.87,5269.93 171.97,5255.74 161.78,5244.13 171.97,5232.52 165.87,5218.32 179.15,5210.43 177.73,5195.05 192.8,5191.65 196.2,5176.57 211.59,5178 219.48,5164.71 233.67,5170.81 "/>
   <polygon fill="#B3B3B3" points="245.28,5660.63 256.89,5670.81 271.08,5664.71 278.97,5678 294.36,5676.57 297.76,5691.65 312.83,5695.05 311.41,5710.43 324.69,5718.32 318.59,5732.52 328.78,5744.13 318.59,5755.74 324.69,5769.93 311.41,5777.82 312.83,5793.2 297.76,5796.61 294.36,5811.68 278.97,5810.26 271.08,5823.54 256.89,5817.44 245.28,5827.63 233.67,5817.44 219.48,5823.54 211.59,5810.26 196.2,5811.68 192.8,5796.61 177.73,5793.2 179.15,5777.82 165.87,5769.93 171.97,5755.74 161.78,5744.13 171.97,5732.52 165.87,5718.32 179.15,5710.43 177.73,5695.05 192.8,5691.65 196.2,5676.57 211.59,5678 219.48,5664.71 233.67,5670.81 "/>
   <polygon fill="#B3B3B3" points="245.28,6160.63 256.89,6170.81 271.08,6164.71 278.97,6178 294.36,6176.57 297.76,6191.65 312.83,6195.05 311.41,6210.43 324.69,6218.32 318.59,6232.52 328.78,6244.13 318.59,6255.74 324.69,6269.93 311.41,6277.82 312.83,6293.2 297.76,6296.61 294.36,6311.68 278.97,6310.26 271.08,6323.54 256.89,6317.44 245.28,6327.63 233.67,6317.44 219.48,6323.54 211.59,6310.26 196.2,6311.68 192.8,6296.61 177.73,6293.2 179.15,6277.82 165.87,6269.93 171.97,6255.74 161.78,6244.13 171.97,6232.52 165.87,6218.32 179.15,6210.43 177.73,6195.05 192.8,6191.65 196.2,6176.57 211.59,6178 219.48,6164.71 233.67,6170.81 "/>
   <polygon fill="#B3B3B3" points="245.28,6660.63 256.89,6670.81 271.08,6664.71 278.97,6678 294.36,6676.57 297.76,6691.65 312.83,6695.05 311.41,6710.43 324.69,6718.32 318.59,6732.52 328.78,6744.13 318.59,6755.74 324.69,6769.93 311.41,6777.82 312.83,6793.2 297.76,6796.61 294.36,6811.68 278.97,6810.26 271.08,6823.54 256.89,6817.44 245.28,6827.63 233.67,6817.44 219.48,6823.54 211.59,6810.26 196.2,6811.68 192.8,6796.61 177.73,6793.2 179.15,6777.82 165.87,6769.93 171.97,6755.74 161.78,6744.13 171.97,6732.52 165.87,6718.32 179.15,6710.43 177.73,6695.05 192.8,6691.65 196.2,6676.57 211.59,6678 219.48,6664.71 233.67,6670.81 "/>
   <polygon fill="#B3B3B3" points="245.28,7160.63 256.89,7170.81 271.08,7164.71 278.97,7178 294.36,7176.57 297.76,7191.65 312.83,7195.05 311.41,7210.43 324.69,7218.32 318.59,7232.52 328.78,7244.13 318.59,7255.74 324.69,7269.93 311.41,7277.82 312.83,7293.2 297.76,7296.61 294.36,7311.68 278.97,7310.26 271.08,7323.54 256.89,7317.44 245.28,7327.63 233.67,7317.44 219.48,7323.54 211.59,7310.26 196.2,7311.68 192.8,7296.61 177.73,7293.2 179.15,7277.82 165.87,7269.93 171.97,7255.74 161.78,7244.13 171.97,7232.52 165.87,7218.32 179.15,7210.43 177.73,7195.05 192.8,7191.65 196.2,7176.57 211.59,7178 219.48,7164.71 233.67,7170.81 "/>
   <polygon fill="#B3B3B3" points="245.28,7660.63 256.89,7670.81 271.08,7664.71 278.97,7678 294.36,7676.57 297.76,7691.65 312.83,7695.05 311.41,7710.43 324.69,7718.32 318.59,7732.52 328.78,7744.13 318.59,7755.74 324.69,7769.93 311.41,7777.82 312.83,7793.2 297.76,7796.61 294.36,7811.68 278.97,7810.26 271.08,7823.54 256.89,7817.44 245.28,7827.63 233.67,7817.44 219.48,7823.54 211.59,7810.26 196.2,7811.68 192.8,7796.61 177.73,7793.2 179.15,7777.82 165.87,7769.93 171.97,7755.74 161.78,7744.13 171.97,7732.52 165.87,7718.32 179.15,7710.43 177.73,7695.05 192.8,7691.65 196.2,7676.57 211.59,7678 219.48,7664.71 233.67,7670.81 "/>
   <polygon fill="#B3B3B3" points="245.28,8160.63 256.89,8170.81 271.08,8164.71 278.97,8178 294.36,8176.57 297.76,8191.65 312.83,8195.05 311.41,8210.43 324.69,8218.32 318.59,8232.52 328.78,8244.13 318.59,8255.74 324.69,8269.93 311.41,8277.82 312.83,8293.2 297.76,8296.61 294.36,8311.68 278.97,8310.26 271.08,8323.54 256.89,8317.44 245.28,8327.63 233.67,8317.44 219.48,8323.54 211.59,8310.26 196.2,8311.68 192.8,8296.61 177.73,8293.2 179.15,8277.82 165.87,8269.93 171.97,8255.74 161.78,8244.13 171.97,8232.52 165.87,8218.32 179.15,8210.43 177.73,8195.05 192.8,8191.65 196.2,8176.57 211.59,8178 219.48,8164.71 233.67,8170.81 "/>
   <polygon fill="#B3B3B3" points="245.28,8660.63 256.89,8670.81 271.08,8664.71 278.97,8678 294.36,8676.57 297.76,8691.65 312.83,8695.05 311.41,8710.43 324.69,8718.32 318.59,8732.52 328.78,8744.13 318.59,8755.74 324.69,8769.93 311.41,8777.82 312.83,8793.2 297.76,8796.61 294.36,8811.68 278.97,8810.26 271.08,8823.54 256.89,8817.44 245.28,8827.63 233.67,8817.44 219.48,8823.54 211.59,8810.26 196.2,8811.68 192.8,8796.61 177.73,8793.2 179.15,8777.82 165.87,8769.93 171.97,8755.74 161.78,8744.13 171.97,8732.52 165.87,8718.32 179.15,8710.43 177.73,8695.05 192.8,8691.65 196.2,8676.57 211.59,8678 219.48,8664.71 233.67,8670.81 "/>
   <polygon fill="#B3B3B3" points="245.28,9160.63 256.89,9170.81 271.08,9164.71 278.97,9178 294.36,9176.57 297.76,9191.65 312.83,9195.05 311.41,9210.43 324.69,9218.32 318.59,9232.52 328.78,9244.13 318.59,9255.74 324.69,9269.93 311.41,9277.82 312.83,9293.2 297.76,9296.61 294.36,9311.68 278.97,9310.26 271.08,9323.54 256.89,9317.44 245.28,9327.63 233.67,9317.44 219.48,9323.54 211.59,9310.26 196.2,9311.68 192.8,9296.61 177.73,9293.2 179.15,9277.82 165.87,9269.93 171.97,9255.74 161.78,9244.13 171.97,9232.52 165.87,9218.32 179.15,9210.43 177.73,9195.05 192.8,9191.65 196.2,9176.57 211.59,9178 219.48,9164.71 233.67,9170.81 "/>
   <polygon fill="#B3B3B3" points="245.28,9660.63 256.89,9670.81 271.08,9664.71 278.97,9678 294.36,9676.57 297.76,9691.65 312.83,9695.05 311.41,9710.43 324.69,9718.32 318.59,9732.52 328.78,9744.13 318.59,9755.74 324.69,9769.93 311.41,9777.82 312.83,9793.2 297.76,9796.61 294.36,9811.68 278.97,9810.26 271.08,9823.54 256.89,9817.44 245.28,9827.63 233.67,9817.44 219.48,9823.54 211.59,9810.26 196.2,9811.68 192.8,9796.61 177.73,9793.2 179.15,9777.82 165.87,9769.93 171.97,9755.74 161.78,9744.13 171.97,9732.52 165.87,9718.32 179.15,9710.43 177.73,9695.05 192.8,9691.65 196.2,9676.57 211.59,9678 219.48,9664.71 233.67,9670.81 "/>
   <polygon fill="#B3B3B3" points="245.28,10160.63 256.89,10170.81 271.08,10164.71 278.97,10178 294.36,10176.57 297.76,10191.65 312.83,10195.05 311.41,10210.43 324.69,10218.32 318.59,10232.52 328.78,10244.13 318.59,10255.74 324.69,10269.93 311.41,10277.82 312.83,10293.2 297.76,10296.61 294.36,10311.68 278.97,10310.26 271.08,10323.54 256.89,10317.44 245.28,10327.63 233.67,10317.44 219.48,10323.54 211.59,10310.26 196.2,10311.68 192.8,10296.61 177.73,10293.2 179.15,10277.82 165.87,10269.93 171.97,10255.74 161.78,10244.13 171.97,10232.52 165.87,10218.32 179.15,10210.43 177.73,10195.05 192.8,10191.65 196.2,10176.57 211.59,10178 219.48,10164.71 233.67,10170.81 "/>
   <polygon fill="#B3B3B3" points="245.28,10660.63 256.89,10670.81 271.08,10664.71 278.97,10678 294.36,10676.57 297.76,10691.65 312.83,10695.05 311.41,10710.43 324.69,10718.32 318.59,10732.52 328.78,10744.13 318.59,10755.74 324.69,10769.93 311.41,10777.82 312.83,10793.2 297.76,10796.61 294.36,10811.68 278.97,10810.26 271.08,10823.54 256.89,10817.44 245.28,10827.63 233.67,10817.44 219.48,10823.54 211.59,10810.26 196.2,10811.68 192.8,10796.61 177.73,10793.2 179.15,10777.82 165.87,10769.93 171.97,10755.74 161.78,10744.13 171.97,10732.52 165.87,10718.32 179.15,10710.43 177.73,10695.05 192.8,10691.65 196.2,10676.57 211.59,10678 219.48,10664.71 233.67,10670.81 "/>
  </g>
  <g id="_2661571960016">
   <polygon fill="#B3B3B3" points="9245.28,160.63 9256.89,170.81 9271.08,164.71 9278.97,178 9294.36,176.57 9297.76,191.65 9312.83,195.05 9311.41,210.43 9324.69,218.32 9318.59,232.52 9328.78,244.13 9318.59,255.74 9324.69,269.93 9311.41,277.82 9312.83,293.2 9297.76,296.61 9294.36,311.68 9278.97,310.26 9271.08,323.54 9256.89,317.44 9245.28,327.63 9233.67,317.44 9219.48,323.54 9211.59,310.26 9196.2,311.68 9192.8,296.61 9177.73,293.2 9179.15,277.82 9165.87,269.93 9171.97,255.74 9161.78,244.13 9171.97,232.52 9165.87,218.32 9179.15,210.43 9177.73,195.05 9192.8,191.65 9196.2,176.57 9211.59,178 9219.48,164.71 9233.67,170.81 "/>
   <polygon fill="#B3B3B3" points="9245.28,660.63 9256.89,670.81 9271.08,664.71 9278.97,678 9294.36,676.57 9297.76,691.65 9312.83,695.05 9311.41,710.43 9324.69,718.32 9318.59,732.52 9328.78,744.13 9318.59,755.74 9324.69,769.93 9311.41,777.82 9312.83,793.2 9297.76,796.61 9294.36,811.68 9278.97,810.26 9271.08,823.54 9256.89,817.44 9245.28,827.63 9233.67,817.44 9219.48,823.54 9211.59,810.26 9196.2,811.68 9192.8,796.61 9177.73,793.2 9179.15,777.82 9165.87,769.93 9171.97,755.74 9161.78,744.13 9171.97,732.52 9165.87,718.32 9179.15,710.43 9177.73,695.05 9192.8,691.65 9196.2,676.57 9211.59,678 9219.48,664.71 9233.67,670.81 "/>
   <polygon fill="#B3B3B3" points="9245.28,1160.63 9256.89,1170.81 9271.08,1164.71 9278.97,1178 9294.36,1176.57 9297.76,1191.65 9312.83,1195.05 9311.41,1210.43 9324.69,1218.32 9318.59,1232.52 9328.78,1244.13 9318.59,1255.74 9324.69,1269.93 9311.41,1277.82 9312.83,1293.2 9297.76,1296.61 9294.36,1311.68 9278.97,1310.26 9271.08,1323.54 9256.89,1317.44 9245.28,1327.63 9233.67,1317.44 9219.48,1323.54 9211.59,1310.26 9196.2,1311.68 9192.8,1296.61 9177.73,1293.2 9179.15,1277.82 9165.87,1269.93 9171.97,1255.74 9161.78,1244.13 9171.97,1232.52 9165.87,1218.32 9179.15,1210.43 9177.73,1195.05 9192.8,1191.65 9196.2,1176.57 9211.59,1178 9219.48,1164.71 9233.67,1170.81 "/>
   <polygon fill="#B3B3B3" points="9245.28,1660.63 9256.89,1670.81 9271.08,1664.71 9278.97,1678 9294.36,1676.57 9297.76,1691.65 9312.83,1695.05 9311.41,1710.43 9324.69,1718.32 9318.59,1732.52 9328.78,1744.13 9318.59,1755.74 9324.69,1769.93 9311.41,1777.82 9312.83,1793.2 9297.76,1796.61 9294.36,1811.68 9278.97,1810.26 9271.08,1823.54 9256.89,1817.44 9245.28,1827.63 9233.67,1817.44 9219.48,1823.54 9211.59,1810.26 9196.2,1811.68 9192.8,1796.61 9177.73,1793.2 9179.15,1777.82 9165.87,1769.93 9171.97,1755.74 9161.78,1744.13 9171.97,1732.52 9165.87,1718.32 9179.15,1710.43 9177.73,1695.05 9192.8,1691.65 9196.2,1676.57 9211.59,1678 9219.48,1664.71 9233.67,1670.81 "/>
   <polygon fill="#B3B3B3" points="9245.28,2160.63 9256.89,2170.81 9271.08,2164.71 9278.97,2178 9294.36,2176.57 9297.76,2191.65 9312.83,2195.05 9311.41,2210.43 9324.69,2218.32 9318.59,2232.52 9328.78,2244.13 9318.59,2255.74 9324.69,2269.93 9311.41,2277.82 9312.83,2293.2 9297.76,2296.61 9294.36,2311.68 9278.97,2310.26 9271.08,2323.54 9256.89,2317.44 9245.28,2327.63 9233.67,2317.44 9219.48,2323.54 9211.59,2310.26 9196.2,2311.68 9192.8,2296.61 9177.73,2293.2 9179.15,2277.82 9165.87,2269.93 9171.97,2255.74 9161.78,2244.13 9171.97,2232.52 9165.87,2218.32 9179.15,2210.43 9177.73,2195.05 9192.8,2191.65 9196.2,2176.57 9211.59,2178 9219.48,2164.71 9233.67,2170.81 "/>
   <polygon fill="#B3B3B3" points="9245.28,2660.63 9256.89,2670.81 9271.08,2664.71 9278.97,2678 9294.36,2676.57 9297.76,2691.65 9312.83,2695.05 9311.41,2710.43 9324.69,2718.32 9318.59,2732.52 9328.78,2744.13 9318.59,2755.74 9324.69,2769.93 9311.41,2777.82 9312.83,2793.2 9297.76,2796.61 9294.36,2811.68 9278.97,2810.26 9271.08,2823.54 9256.89,2817.44 9245.28,2827.63 9233.67,2817.44 9219.48,2823.54 9211.59,2810.26 9196.2,2811.68 9192.8,2796.61 9177.73,2793.2 9179.15,2777.82 9165.87,2769.93 9171.97,2755.74 9161.78,2744.13 9171.97,2732.52 9165.87,2718.32 9179.15,2710.43 9177.73,2695.05 9192.8,2691.65 9196.2,2676.57 9211.59,2678 9219.48,2664.71 9233.67,2670.81 "/>
   <polygon fill="#B3B3B3" points="9245.28,3160.63 9256.89,3170.81 9271.08,3164.71 9278.97,3178 9294.36,3176.57 9297.76,3191.65 9312.83,3195.05 9311.41,3210.43 9324.69,3218.32 9318.59,3232.52 9328.78,3244.13 9318.59,3255.74 9324.69,3269.93 9311.41,3277.82 9312.83,3293.2 9297.76,3296.61 9294.36,3311.68 9278.97,3310.26 9271.08,3323.54 9256.89,3317.44 9245.28,3327.63 9233.67,3317.44 9219.48,3323.54 9211.59,3310.26 9196.2,3311.68 9192.8,3296.61 9177.73,3293.2 9179.15,3277.82 9165.87,3269.93 9171.97,3255.74 9161.78,3244.13 9171.97,3232.52 9165.87,3218.32 9179.15,3210.43 9177.73,3195.05 9192.8,3191.65 9196.2,3176.57 9211.59,3178 9219.48,3164.71 9233.67,3170.81 "/>
   <polygon fill="#B3B3B3" points="9245.28,3660.63 9256.89,3670.81 9271.08,3664.71 9278.97,3678 9294.36,3676.57 9297.76,3691.65 9312.83,3695.05 9311.41,3710.43 9324.69,3718.32 9318.59,3732.52 9328.78,3744.13 9318.59,3755.74 9324.69,3769.93 9311.41,3777.82 9312.83,3793.2 9297.76,3796.61 9294.36,3811.68 9278.97,3810.26 9271.08,3823.54 9256.89,3817.44 9245.28,3827.63 9233.67,3817.44 9219.48,3823.54 9211.59,3810.26 9196.2,3811.68 9192.8,3796.61 9177.73,3793.2 9179.15,3777.82 9165.87,3769.93 9171.97,3755.74 9161.78,3744.13 9171.97,3732.52 9165.87,3718.32 9179.15,3710.43 9177.73,3695.05 9192.8,3691.65 9196.2,3676.57 9211.59,3678 9219.48,3664.71 9233.67,3670.81 "/>
   <polygon fill="#B3B3B3" points="9245.28,4160.63 9256.89,4170.81 9271.08,4164.71 9278.97,4178 9294.36,4176.57 9297.76,4191.65 9312.83,4195.05 9311.41,4210.43 9324.69,4218.32 9318.59,4232.52 9328.78,4244.13 9318.59,4255.74 9324.69,4269.93 9311.41,4277.82 9312.83,4293.2 9297.76,4296.61 9294.36,4311.68 9278.97,4310.26 9271.08,4323.54 9256.89,4317.44 9245.28,4327.63 9233.67,4317.44 9219.48,4323.54 9211.59,4310.26 9196.2,4311.68 9192.8,4296.61 9177.73,4293.2 9179.15,4277.82 9165.87,4269.93 9171.97,4255.74 9161.78,4244.13 9171.97,4232.52 9165.87,4218.32 9179.15,4210.43 9177.73,4195.05 9192.8,4191.65 9196.2,4176.57 9211.59,4178 9219.48,4164.71 9233.67,4170.81 "/>
   <polygon fill="#B3B3B3" points="9245.28,4660.63 9256.89,4670.81 9271.08,4664.71 9278.97,4678 9294.36,4676.57 9297.76,4691.65 9312.83,4695.05 9311.41,4710.43 9324.69,4718.32 9318.59,4732.52 9328.78,4744.13 9318.59,4755.74 9324.69,4769.93 9311.41,4777.82 9312.83,4793.2 9297.76,4796.61 9294.36,4811.68 9278.97,4810.26 9271.08,4823.54 9256.89,4817.44 9245.28,4827.63 9233.67,4817.44 9219.48,4823.54 9211.59,4810.26 9196.2,4811.68 9192.8,4796.61 9177.73,4793.2 9179.15,4777.82 9165.87,4769.93 9171.97,4755.74 9161.78,4744.13 9171.97,4732.52 9165.87,4718.32 9179.15,4710.43 9177.73,4695.05 9192.8,4691.65 9196.2,4676.57 9211.59,4678 9219.48,4664.71 9233.67,4670.81 "/>
   <polygon fill="#B3B3B3" points="9245.28,5160.63 9256.89,5170.81 9271.08,5164.71 9278.97,5178 9294.36,5176.57 9297.76,5191.65 9312.83,5195.05 9311.41,5210.43 9324.69,5218.32 9318.59,5232.52 9328.78,5244.13 9318.59,5255.74 9324.69,5269.93 9311.41,5277.82 9312.83,5293.2 9297.76,5296.61 9294.36,5311.68 9278.97,5310.26 9271.08,5323.54 9256.89,5317.44 9245.28,5327.63 9233.67,5317.44 9219.48,5323.54 9211.59,5310.26 9196.2,5311.68 9192.8,5296.61 9177.73,5293.2 9179.15,5277.82 9165.87,5269.93 9171.97,5255.74 9161.78,5244.13 9171.97,5232.52 9165.87,5218.32 9179.15,5210.43 9177.73,5195.05 9192.8,5191.65 9196.2,5176.57 9211.59,5178 9219.48,5164.71 9233.67,5170.81 "/>
   <polygon fill="#B3B3B3" points="9245.28,5660.63 9256.89,5670.81 9271.08,5664.71 9278.97,5678 9294.36,5676.57 9297.76,5691.65 9312.83,5695.05 9311.41,5710.43 9324.69,5718.32 9318.59,5732.52 9328.78,5744.13 9318.59,5755.74 9324.69,5769.93 9311.41,5777.82 9312.83,5793.2 9297.76,5796.61 9294.36,5811.68 9278.97,5810.26 9271.08,5823.54 9256.89,5817.44 9245.28,5827.63 9233.67,5817.44 9219.48,5823.54 9211.59,5810.26 9196.2,5811.68 9192.8,5796.61 9177.73,5793.2 9179.15,5777.82 9165.87,5769.93 9171.97,5755.74 9161.78,5744.13 9171.97,5732.52 9165.87,5718.32 9179.15,5710.43 9177.73,5695.05 9192.8,5691.65 9196.2,5676.57 9211.59,5678 9219.48,5664.71 9233.67,5670.81 "/>
   <polygon fill="#B3B3B3" points="9245.28,6160.63 9256.89,6170.81 9271.08,6164.71 9278.97,6178 9294.36,6176.57 9297.76,6191.65 9312.83,6195.05 9311.41,6210.43 9324.69,6218.32 9318.59,6232.52 9328.78,6244.13 9318.59,6255.74 9324.69,6269.93 9311.41,6277.82 9312.83,6293.2 9297.76,6296.61 9294.36,6311.68 9278.97,6310.26 9271.08,6323.54 9256.89,6317.44 9245.28,6327.63 9233.67,6317.44 9219.48,6323.54 9211.59,6310.26 9196.2,6311.68 9192.8,6296.61 9177.73,6293.2 9179.15,6277.82 9165.87,6269.93 9171.97,6255.74 9161.78,6244.13 9171.97,6232.52 9165.87,6218.32 9179.15,6210.43 9177.73,6195.05 9192.8,6191.65 9196.2,6176.57 9211.59,6178 9219.48,6164.71 9233.67,6170.81 "/>
   <polygon fill="#B3B3B3" points="9245.28,6660.63 9256.89,6670.81 9271.08,6664.71 9278.97,6678 9294.36,6676.57 9297.76,6691.65 9312.83,6695.05 9311.41,6710.43 9324.69,6718.32 9318.59,6732.52 9328.78,6744.13 9318.59,6755.74 9324.69,6769.93 9311.41,6777.82 9312.83,6793.2 9297.76,6796.61 9294.36,6811.68 9278.97,6810.26 9271.08,6823.54 9256.89,6817.44 9245.28,6827.63 9233.67,6817.44 9219.48,6823.54 9211.59,6810.26 9196.2,6811.68 9192.8,6796.61 9177.73,6793.2 9179.15,6777.82 9165.87,6769.93 9171.97,6755.74 9161.78,6744.13 9171.97,6732.52 9165.87,6718.32 9179.15,6710.43 9177.73,6695.05 9192.8,6691.65 9196.2,6676.57 9211.59,6678 9219.48,6664.71 9233.67,6670.81 "/>
   <polygon fill="#B3B3B3" points="9245.28,7160.63 9256.89,7170.81 9271.08,7164.71 9278.97,7178 9294.36,7176.57 9297.76,7191.65 9312.83,7195.05 9311.41,7210.43 9324.69,7218.32 9318.59,7232.52 9328.78,7244.13 9318.59,7255.74 9324.69,7269.93 9311.41,7277.82 9312.83,7293.2 9297.76,7296.61 9294.36,7311.68 9278.97,7310.26 9271.08,7323.54 9256.89,7317.44 9245.28,7327.63 9233.67,7317.44 9219.48,7323.54 9211.59,7310.26 9196.2,7311.68 9192.8,7296.61 9177.73,7293.2 9179.15,7277.82 9165.87,7269.93 9171.97,7255.74 9161.78,7244.13 9171.97,7232.52 9165.87,7218.32 9179.15,7210.43 9177.73,7195.05 9192.8,7191.65 9196.2,7176.57 9211.59,7178 9219.48,7164.71 9233.67,7170.81 "/>
   <polygon fill="#B3B3B3" points="9245.28,7660.63 9256.89,7670.81 9271.08,7664.71 9278.97,7678 9294.36,7676.57 9297.76,7691.65 9312.83,7695.05 9311.41,7710.43 9324.69,7718.32 9318.59,7732.52 9328.78,7744.13 9318.59,7755.74 9324.69,7769.93 9311.41,7777.82 9312.83,7793.2 9297.76,7796.61 9294.36,7811.68 9278.97,7810.26 9271.08,7823.54 9256.89,7817.44 9245.28,7827.63 9233.67,7817.44 9219.48,7823.54 9211.59,7810.26 9196.2,7811.68 9192.8,7796.61 9177.73,7793.2 9179.15,7777.82 9165.87,7769.93 9171.97,7755.74 9161.78,7744.13 9171.97,7732.52 9165.87,7718.32 9179.15,7710.43 9177.73,7695.05 9192.8,7691.65 9196.2,7676.57 9211.59,7678 9219.48,7664.71 9233.67,7670.81 "/>
   <polygon fill="#B3B3B3" points="9245.28,8160.63 9256.89,8170.81 9271.08,8164.71 9278.97,8178 9294.36,8176.57 9297.76,8191.65 9312.83,8195.05 9311.41,8210.43 9324.69,8218.32 9318.59,8232.52 9328.78,8244.13 9318.59,8255.74 9324.69,8269.93 9311.41,8277.82 9312.83,8293.2 9297.76,8296.61 9294.36,8311.68 9278.97,8310.26 9271.08,8323.54 9256.89,8317.44 9245.28,8327.63 9233.67,8317.44 9219.48,8323.54 9211.59,8310.26 9196.2,8311.68 9192.8,8296.61 9177.73,8293.2 9179.15,8277.82 9165.87,8269.93 9171.97,8255.74 9161.78,8244.13 9171.97,8232.52 9165.87,8218.32 9179.15,8210.43 9177.73,8195.05 9192.8,8191.65 9196.2,8176.57 9211.59,8178 9219.48,8164.71 9233.67,8170.81 "/>
   <polygon fill="#B3B3B3" points="9245.28,8660.63 9256.89,8670.81 9271.08,8664.71 9278.97,8678 9294.36,8676.57 9297.76,8691.65 9312.83,8695.05 9311.41,8710.43 9324.69,8718.32 9318.59,8732.52 9328.78,8744.13 9318.59,8755.74 9324.69,8769.93 9311.41,8777.82 9312.83,8793.2 9297.76,8796.61 9294.36,8811.68 9278.97,8810.26 9271.08,8823.54 9256.89,8817.44 9245.28,8827.63 9233.67,8817.44 9219.48,8823.54 9211.59,8810.26 9196.2,8811.68 9192.8,8796.61 9177.73,8793.2 9179.15,8777.82 9165.87,8769.93 9171.97,8755.74 9161.78,8744.13 9171.97,8732.52 9165.87,8718.32 9179.15,8710.43 9177.73,8695.05 9192.8,8691.65 9196.2,8676.57 9211.59,8678 9219.48,8664.71 9233.67,8670.81 "/>
   <polygon fill="#B3B3B3" points="9245.28,9160.63 9256.89,9170.81 9271.08,9164.71 9278.97,9178 9294.36,9176.57 9297.76,9191.65 9312.83,9195.05 9311.41,9210.43 9324.69,9218.32 9318.59,9232.52 9328.78,9244.13 9318.59,9255.74 9324.69,9269.93 9311.41,9277.82 9312.83,9293.2 9297.76,9296.61 9294.36,9311.68 9278.97,9310.26 9271.08,9323.54 9256.89,9317.44 9245.28,9327.63 9233.67,9317.44 9219.48,9323.54 9211.59,9310.26 9196.2,9311.68 9192.8,9296.61 9177.73,9293.2 9179.15,9277.82 9165.87,9269.93 9171.97,9255.74 9161.78,9244.13 9171.97,9232.52 9165.87,9218.32 9179.15,9210.43 9177.73,9195.05 9192.8,9191.65 9196.2,9176.57 9211.59,9178 9219.48,9164.71 9233.67,9170.81 "/>
   <polygon fill="#B3B3B3" points="9245.28,9660.63 9256.89,9670.81 9271.08,9664.71 9278.97,9678 9294.36,9676.57 9297.76,9691.65 9312.83,9695.05 9311.41,9710.43 9324.69,9718.32 9318.59,9732.52 9328.78,9744.13 9318.59,9755.74 9324.69,9769.93 9311.41,9777.82 9312.83,9793.2 9297.76,9796.61 9294.36,9811.68 9278.97,9810.26 9271.08,9823.54 9256.89,9817.44 9245.28,9827.63 9233.67,9817.44 9219.48,9823.54 9211.59,9810.26 9196.2,9811.68 9192.8,9796.61 9177.73,9793.2 9179.15,9777.82 9165.87,9769.93 9171.97,9755.74 9161.78,9744.13 9171.97,9732.52 9165.87,9718.32 9179.15,9710.43 9177.73,9695.05 9192.8,9691.65 9196.2,9676.57 9211.59,9678 9219.48,9664.71 9233.67,9670.81 "/>
   <polygon fill="#B3B3B3" points="9245.28,10160.63 9256.89,10170.81 9271.08,10164.71 9278.97,10178 9294.36,10176.57 9297.76,10191.65 9312.83,10195.05 9311.41,10210.43 9324.69,10218.32 9318.59,10232.52 9328.78,10244.13 9318.59,10255.74 9324.69,10269.93 9311.41,10277.82 9312.83,10293.2 9297.76,10296.61 9294.36,10311.68 9278.97,10310.26 9271.08,10323.54 9256.89,10317.44 9245.28,10327.63 9233.67,10317.44 9219.48,10323.54 9211.59,10310.26 9196.2,10311.68 9192.8,10296.61 9177.73,10293.2 9179.15,10277.82 9165.87,10269.93 9171.97,10255.74 9161.78,10244.13 9171.97,10232.52 9165.87,10218.32 9179.15,10210.43 9177.73,10195.05 9192.8,10191.65 9196.2,10176.57 9211.59,10178 9219.48,10164.71 9233.67,10170.81 "/>
   <polygon fill="#B3B3B3" points="9245.28,10660.63 9256.89,10670.81 9271.08,10664.71 9278.97,10678 9294.36,10676.57 9297.76,10691.65 9312.83,10695.05 9311.41,10710.43 9324.69,10718.32 9318.59,10732.52 9328.78,10744.13 9318.59,10755.74 9324.69,10769.93 9311.41,10777.82 9312.83,10793.2 9297.76,10796.61 9294.36,10811.68 9278.97,10810.26 9271.08,10823.54 9256.89,10817.44 9245.28,10827.63 9233.67,10817.44 9219.48,10823.54 9211.59,10810.26 9196.2,10811.68 9192.8,10796.61 9177.73,10793.2 9179.15,10777.82 9165.87,10769.93 9171.97,10755.74 9161.78,10744.13 9171.97,10732.52 9165.87,10718.32 9179.15,10710.43 9177.73,10695.05 9192.8,10691.65 9196.2,10676.57 9211.59,10678 9219.48,10664.71 9233.67,10670.81 "/>
  </g>
 </g>
 <g id="Green">
  <metadata id="CorelCorpID_1Corel-Layer"/>
  <g id="_2661571951408">
   <g>
    <path fill="#009933" fill-opacity="0.301961" d="M496.02 9995.19l8500 0 0 420c0,44 -36,80 -80,80l-8340 0c-44,0 -80,-36 -80,-80l0 -420z"/>
    <path id="1" fill="none" stroke="#009933" stroke-width="7.87" stroke-miterlimit="22.9256" d="M496.02 9995.19l8500 0 0 420c0,44 -36,80 -80,80l-8340 0c-44,0 -80,-36 -80,-80l0 -420z"/>
   </g>
   <g>
    <polygon fill="#009933" fill-opacity="0.301961" points="496.02,8995.19 8996.02,8995.19 8996.02,9495.19 496.02,9495.19 "/>
    <polygon id="1" fill="none" stroke="#009933" stroke-width="7.87" stroke-miterlimit="22.9256" points="496.02,8995.19 8996.02,8995.19 8996.02,9495.19 496.02,9495.19 "/>
   </g>
   <g>
    <polygon fill="#009933" fill-opacity="0.301961" points="496.02,7995.19 8996.02,7995.19 8996.02,8495.19 496.02,8495.19 "/>
    <polygon id="1" fill="none" stroke="#009933" stroke-width="7.87" stroke-miterlimit="22.9256" points="496.02,7995.19 8996.02,7995.19 8996.02,8495.19 496.02,8495.19 "/>
   </g>
   <g>
    <polygon fill="#009933" fill-opacity="0.301961" points="496.02,6995.19 8996.02,6995.19 8996.02,7495.19 496.02,7495.19 "/>
    <polygon id="1" fill="none" stroke="#009933" stroke-width="7.87" stroke-miterlimit="22.9256" points="496.02,6995.19 8996.02,6995.19 8996.02,7495.19 496.02,7495.19 "/>
   </g>
   <g>
    <polygon fill="#009933" fill-opacity="0.301961" points="496.02,5995.19 8996.02,5995.19 8996.02,6495.19 496.02,6495.19 "/>
    <polygon id="1" fill="none" stroke="#009933" stroke-width="7.87" stroke-miterlimit="22.9256" points="496.02,5995.19 8996.02,5995.19 8996.02,6495.19 496.02,6495.19 "/>
   </g>
   <g>
    <polygon fill="#009933" fill-opacity="0.301961" points="496.02,4995.19 8996.02,4995.19 8996.02,5495.19 496.02,5495.19 "/>
    <polygon id="1" fill="none" stroke="#009933" stroke-width="7.87" stroke-miterlimit="22.9256" points="496.02,4995.19 8996.02,4995.19 8996.02,5495.19 496.02,5495.19 "/>
   </g>
   <g>
    <polygon fill="#009933" fill-opacity="0.301961" points="496.02,3995.19 8996.02,3995.19 8996.02,4495.19 496.02,4495.19 "/>
    <polygon id="1" fill="none" stroke="#009933" stroke-width="7.87" stroke-miterlimit="22.9256" points="496.02,3995.19 8996.02,3995.19 8996.02,4495.19 496.02,4495.19 "/>
   </g>
   <g>
    <polygon fill="#009933" fill-opacity="0.301961" points="496.02,2995.19 8996.02,2995.19 8996.02,3495.19 496.02,3495.19 "/>
    <polygon id="1" fill="none" stroke="#009933" stroke-width="7.87" stroke-miterlimit="22.9256" points="496.02,2995.19 8996.02,2995.19 8996.02,3495.19 496.02,3495.19 "/>
   </g>
   <g>
    <polygon fill="#009933" fill-opacity="0.301961" points="496.02,1995.19 8996.02,1995.19 8996.02,2495.19 496.02,2495.19 "/>
    <polygon id="1" fill="none" stroke="#009933" stroke-width="7.87" stroke-miterlimit="22.9256" points="496.02,1995.19 8996.02,1995.19 8996.02,2495.19 496.02,2495.19 "/>
   </g>
   <g>
    <polygon fill="#009933" fill-opacity="0.301961" points="496.02,995.19 8996.02,995.19 8996.02,1495.19 496.02,1495.19 "/>
    <polygon id="1" fill="none" stroke="#009933" stroke-width="7.87" stroke-miterlimit="22.9256" points="496.02,995.19 8996.02,995.19 8996.02,1495.19 496.02,1495.19 "/>
   </g>
  </g>
  <rect fill="none" stroke="#009933" stroke-width="7.87" stroke-miterlimit="22.9256" x="496.02" y="161.85" width="8500" height="10333.33" rx="74.11" ry="91.85"/>
 </g>
</svg>
