<?xml version="1.0" encoding="UTF-8"?>
<!DOCTYPE svg PUBLIC "-//W3C//DTD SVG 1.1//EN" "http://www.w3.org/Graphics/SVG/1.1/DTD/svg11.dtd">
<!-- Creator: CorelDRAW 2019 (64-Bit) -->
<svg xmlns="http://www.w3.org/2000/svg" xml:space="preserve" width="15in" height="11in" version="1.1" shape-rendering="geometricPrecision" text-rendering="geometricPrecision" image-rendering="optimizeQuality" fill-rule="evenodd" clip-rule="evenodd"
viewBox="500 0 14000 11000"
 xmlns:xlink="http://www.w3.org/1999/xlink">
 <g id="Star_x0020_Sprokets">
  <metadata id="CorelCorpID_0Corel-Layer"/>
  <g id="_2661694090144">
   <polygon fill="#B3B3B3" points="245.02,160.63 256.63,170.81 270.82,164.71 278.71,178 294.1,176.57 297.5,191.65 312.57,195.05 311.15,210.43 324.43,218.32 318.33,232.52 328.52,244.13 318.33,255.74 324.43,269.93 311.15,277.82 312.57,293.2 297.5,296.61 294.1,311.68 278.71,310.26 270.82,323.54 256.63,317.44 245.02,327.63 233.41,317.44 219.22,323.54 211.33,310.26 195.94,311.68 192.54,296.61 177.47,293.2 178.89,277.82 165.61,269.93 171.71,255.74 161.52,244.13 171.71,232.52 165.61,218.32 178.89,210.43 177.47,195.05 192.54,191.65 195.94,176.57 211.33,178 219.22,164.71 233.41,170.81 "/>
   <polygon fill="#B3B3B3" points="245.02,660.63 256.63,670.81 270.82,664.71 278.71,678 294.1,676.57 297.5,691.65 312.57,695.05 311.15,710.43 324.43,718.32 318.33,732.52 328.52,744.13 318.33,755.74 324.43,769.93 311.15,777.82 312.57,793.2 297.5,796.61 294.1,811.68 278.71,810.26 270.82,823.54 256.63,817.44 245.02,827.63 233.41,817.44 219.22,823.54 211.33,810.26 195.94,811.68 192.54,796.61 177.47,793.2 178.89,777.82 165.61,769.93 171.71,755.74 161.52,744.13 171.71,732.52 165.61,718.32 178.89,710.43 177.47,695.05 192.54,691.65 195.94,676.57 211.33,678 219.22,664.71 233.41,670.81 "/>
   <polygon fill="#B3B3B3" points="245.02,1160.63 256.63,1170.81 270.82,1164.71 278.71,1178 294.1,1176.57 297.5,1191.65 312.57,1195.05 311.15,1210.43 324.43,1218.32 318.33,1232.52 328.52,1244.13 318.33,1255.74 324.43,1269.93 311.15,1277.82 312.57,1293.2 297.5,1296.61 294.1,1311.68 278.71,1310.26 270.82,1323.54 256.63,1317.44 245.02,1327.63 233.41,1317.44 219.22,1323.54 211.33,1310.26 195.94,1311.68 192.54,1296.61 177.47,1293.2 178.89,1277.82 165.61,1269.93 171.71,1255.74 161.52,1244.13 171.71,1232.52 165.61,1218.32 178.89,1210.43 177.47,1195.05 192.54,1191.65 195.94,1176.57 211.33,1178 219.22,1164.71 233.41,1170.81 "/>
   <polygon fill="#B3B3B3" points="245.02,1660.63 256.63,1670.81 270.82,1664.71 278.71,1678 294.1,1676.57 297.5,1691.65 312.57,1695.05 311.15,1710.43 324.43,1718.32 318.33,1732.52 328.52,1744.13 318.33,1755.74 324.43,1769.93 311.15,1777.82 312.57,1793.2 297.5,1796.61 294.1,1811.68 278.71,1810.26 270.82,1823.54 256.63,1817.44 245.02,1827.63 233.41,1817.44 219.22,1823.54 211.33,1810.26 195.94,1811.68 192.54,1796.61 177.47,1793.2 178.89,1777.82 165.61,1769.93 171.71,1755.74 161.52,1744.13 171.71,1732.52 165.61,1718.32 178.89,1710.43 177.47,1695.05 192.54,1691.65 195.94,1676.57 211.33,1678 219.22,1664.71 233.41,1670.81 "/>
   <polygon fill="#B3B3B3" points="245.02,2160.63 256.63,2170.81 270.82,2164.71 278.71,2178 294.1,2176.57 297.5,2191.65 312.57,2195.05 311.15,2210.43 324.43,2218.32 318.33,2232.52 328.52,2244.13 318.33,2255.74 324.43,2269.93 311.15,2277.82 312.57,2293.2 297.5,2296.61 294.1,2311.68 278.71,2310.26 270.82,2323.54 256.63,2317.44 245.02,2327.63 233.41,2317.44 219.22,2323.54 211.33,2310.26 195.94,2311.68 192.54,2296.61 177.47,2293.2 178.89,2277.82 165.61,2269.93 171.71,2255.74 161.52,2244.13 171.71,2232.52 165.61,2218.32 178.89,2210.43 177.47,2195.05 192.54,2191.65 195.94,2176.57 211.33,2178 219.22,2164.71 233.41,2170.81 "/>
   <polygon fill="#B3B3B3" points="245.02,2660.63 256.63,2670.81 270.82,2664.71 278.71,2678 294.1,2676.57 297.5,2691.65 312.57,2695.05 311.15,2710.43 324.43,2718.32 318.33,2732.52 328.52,2744.13 318.33,2755.74 324.43,2769.93 311.15,2777.82 312.57,2793.2 297.5,2796.61 294.1,2811.68 278.71,2810.26 270.82,2823.54 256.63,2817.44 245.02,2827.63 233.41,2817.44 219.22,2823.54 211.33,2810.26 195.94,2811.68 192.54,2796.61 177.47,2793.2 178.89,2777.82 165.61,2769.93 171.71,2755.74 161.52,2744.13 171.71,2732.52 165.61,2718.32 178.89,2710.43 177.47,2695.05 192.54,2691.65 195.94,2676.57 211.33,2678 219.22,2664.71 233.41,2670.81 "/>
   <polygon fill="#B3B3B3" points="245.02,3160.63 256.63,3170.81 270.82,3164.71 278.71,3178 294.1,3176.57 297.5,3191.65 312.57,3195.05 311.15,3210.43 324.43,3218.32 318.33,3232.52 328.52,3244.13 318.33,3255.74 324.43,3269.93 311.15,3277.82 312.57,3293.2 297.5,3296.61 294.1,3311.68 278.71,3310.26 270.82,3323.54 256.63,3317.44 245.02,3327.63 233.41,3317.44 219.22,3323.54 211.33,3310.26 195.94,3311.68 192.54,3296.61 177.47,3293.2 178.89,3277.82 165.61,3269.93 171.71,3255.74 161.52,3244.13 171.71,3232.52 165.61,3218.32 178.89,3210.43 177.47,3195.05 192.54,3191.65 195.94,3176.57 211.33,3178 219.22,3164.71 233.41,3170.81 "/>
   <polygon fill="#B3B3B3" points="245.02,3660.63 256.63,3670.81 270.82,3664.71 278.71,3678 294.1,3676.57 297.5,3691.65 312.57,3695.05 311.15,3710.43 324.43,3718.32 318.33,3732.52 328.52,3744.13 318.33,3755.74 324.43,3769.93 311.15,3777.82 312.57,3793.2 297.5,3796.61 294.1,3811.68 278.71,3810.26 270.82,3823.54 256.63,3817.44 245.02,3827.63 233.41,3817.44 219.22,3823.54 211.33,3810.26 195.94,3811.68 192.54,3796.61 177.47,3793.2 178.89,3777.82 165.61,3769.93 171.71,3755.74 161.52,3744.13 171.71,3732.52 165.61,3718.32 178.89,3710.43 177.47,3695.05 192.54,3691.65 195.94,3676.57 211.33,3678 219.22,3664.71 233.41,3670.81 "/>
   <polygon fill="#B3B3B3" points="245.02,4160.63 256.63,4170.81 270.82,4164.71 278.71,4178 294.1,4176.57 297.5,4191.65 312.57,4195.05 311.15,4210.43 324.43,4218.32 318.33,4232.52 328.52,4244.13 318.33,4255.74 324.43,4269.93 311.15,4277.82 312.57,4293.2 297.5,4296.61 294.1,4311.68 278.71,4310.26 270.82,4323.54 256.63,4317.44 245.02,4327.63 233.41,4317.44 219.22,4323.54 211.33,4310.26 195.94,4311.68 192.54,4296.61 177.47,4293.2 178.89,4277.82 165.61,4269.93 171.71,4255.74 161.52,4244.13 171.71,4232.52 165.61,4218.32 178.89,4210.43 177.47,4195.05 192.54,4191.65 195.94,4176.57 211.33,4178 219.22,4164.71 233.41,4170.81 "/>
   <polygon fill="#B3B3B3" points="245.02,4660.63 256.63,4670.81 270.82,4664.71 278.71,4678 294.1,4676.57 297.5,4691.65 312.57,4695.05 311.15,4710.43 324.43,4718.32 318.33,4732.52 328.52,4744.13 318.33,4755.74 324.43,4769.93 311.15,4777.82 312.57,4793.2 297.5,4796.61 294.1,4811.68 278.71,4810.26 270.82,4823.54 256.63,4817.44 245.02,4827.63 233.41,4817.44 219.22,4823.54 211.33,4810.26 195.94,4811.68 192.54,4796.61 177.47,4793.2 178.89,4777.82 165.61,4769.93 171.71,4755.74 161.52,4744.13 171.71,4732.52 165.61,4718.32 178.89,4710.43 177.47,4695.05 192.54,4691.65 195.94,4676.57 211.33,4678 219.22,4664.71 233.41,4670.81 "/>
   <polygon fill="#B3B3B3" points="245.02,5160.63 256.63,5170.81 270.82,5164.71 278.71,5178 294.1,5176.57 297.5,5191.65 312.57,5195.05 311.15,5210.43 324.43,5218.32 318.33,5232.52 328.52,5244.13 318.33,5255.74 324.43,5269.93 311.15,5277.82 312.57,5293.2 297.5,5296.61 294.1,5311.68 278.71,5310.26 270.82,5323.54 256.63,5317.44 245.02,5327.63 233.41,5317.44 219.22,5323.54 211.33,5310.26 195.94,5311.68 192.54,5296.61 177.47,5293.2 178.89,5277.82 165.61,5269.93 171.71,5255.74 161.52,5244.13 171.71,5232.52 165.61,5218.32 178.89,5210.43 177.47,5195.05 192.54,5191.65 195.94,5176.57 211.33,5178 219.22,5164.71 233.41,5170.81 "/>
   <polygon fill="#B3B3B3" points="245.02,5660.63 256.63,5670.81 270.82,5664.71 278.71,5678 294.1,5676.57 297.5,5691.65 312.57,5695.05 311.15,5710.43 324.43,5718.32 318.33,5732.52 328.52,5744.13 318.33,5755.74 324.43,5769.93 311.15,5777.82 312.57,5793.2 297.5,5796.61 294.1,5811.68 278.71,5810.26 270.82,5823.54 256.63,5817.44 245.02,5827.63 233.41,5817.44 219.22,5823.54 211.33,5810.26 195.94,5811.68 192.54,5796.61 177.47,5793.2 178.89,5777.82 165.61,5769.93 171.71,5755.74 161.52,5744.13 171.71,5732.52 165.61,5718.32 178.89,5710.43 177.47,5695.05 192.54,5691.65 195.94,5676.57 211.33,5678 219.22,5664.71 233.41,5670.81 "/>
   <polygon fill="#B3B3B3" points="245.02,6160.63 256.63,6170.81 270.82,6164.71 278.71,6178 294.1,6176.57 297.5,6191.65 312.57,6195.05 311.15,6210.43 324.43,6218.32 318.33,6232.52 328.52,6244.13 318.33,6255.74 324.43,6269.93 311.15,6277.82 312.57,6293.2 297.5,6296.61 294.1,6311.68 278.71,6310.26 270.82,6323.54 256.63,6317.44 245.02,6327.63 233.41,6317.44 219.22,6323.54 211.33,6310.26 195.94,6311.68 192.54,6296.61 177.47,6293.2 178.89,6277.82 165.61,6269.93 171.71,6255.74 161.52,6244.13 171.71,6232.52 165.61,6218.32 178.89,6210.43 177.47,6195.05 192.54,6191.65 195.94,6176.57 211.33,6178 219.22,6164.71 233.41,6170.81 "/>
   <polygon fill="#B3B3B3" points="245.02,6660.63 256.63,6670.81 270.82,6664.71 278.71,6678 294.1,6676.57 297.5,6691.65 312.57,6695.05 311.15,6710.43 324.43,6718.32 318.33,6732.52 328.52,6744.13 318.33,6755.74 324.43,6769.93 311.15,6777.82 312.57,6793.2 297.5,6796.61 294.1,6811.68 278.71,6810.26 270.82,6823.54 256.63,6817.44 245.02,6827.63 233.41,6817.44 219.22,6823.54 211.33,6810.26 195.94,6811.68 192.54,6796.61 177.47,6793.2 178.89,6777.82 165.61,6769.93 171.71,6755.74 161.52,6744.13 171.71,6732.52 165.61,6718.32 178.89,6710.43 177.47,6695.05 192.54,6691.65 195.94,6676.57 211.33,6678 219.22,6664.71 233.41,6670.81 "/>
   <polygon fill="#B3B3B3" points="245.02,7160.63 256.63,7170.81 270.82,7164.71 278.71,7178 294.1,7176.57 297.5,7191.65 312.57,7195.05 311.15,7210.43 324.43,7218.32 318.33,7232.52 328.52,7244.13 318.33,7255.74 324.43,7269.93 311.15,7277.82 312.57,7293.2 297.5,7296.61 294.1,7311.68 278.71,7310.26 270.82,7323.54 256.63,7317.44 245.02,7327.63 233.41,7317.44 219.22,7323.54 211.33,7310.26 195.94,7311.68 192.54,7296.61 177.47,7293.2 178.89,7277.82 165.61,7269.93 171.71,7255.74 161.52,7244.13 171.71,7232.52 165.61,7218.32 178.89,7210.43 177.47,7195.05 192.54,7191.65 195.94,7176.57 211.33,7178 219.22,7164.71 233.41,7170.81 "/>
   <polygon fill="#B3B3B3" points="245.02,7660.63 256.63,7670.81 270.82,7664.71 278.71,7678 294.1,7676.57 297.5,7691.65 312.57,7695.05 311.15,7710.43 324.43,7718.32 318.33,7732.52 328.52,7744.13 318.33,7755.74 324.43,7769.93 311.15,7777.82 312.57,7793.2 297.5,7796.61 294.1,7811.68 278.71,7810.26 270.82,7823.54 256.63,7817.44 245.02,7827.63 233.41,7817.44 219.22,7823.54 211.33,7810.26 195.94,7811.68 192.54,7796.61 177.47,7793.2 178.89,7777.82 165.61,7769.93 171.71,7755.74 161.52,7744.13 171.71,7732.52 165.61,7718.32 178.89,7710.43 177.47,7695.05 192.54,7691.65 195.94,7676.57 211.33,7678 219.22,7664.71 233.41,7670.81 "/>
   <polygon fill="#B3B3B3" points="245.02,8160.63 256.63,8170.81 270.82,8164.71 278.71,8178 294.1,8176.57 297.5,8191.65 312.57,8195.05 311.15,8210.43 324.43,8218.32 318.33,8232.52 328.52,8244.13 318.33,8255.74 324.43,8269.93 311.15,8277.82 312.57,8293.2 297.5,8296.61 294.1,8311.68 278.71,8310.26 270.82,8323.54 256.63,8317.44 245.02,8327.63 233.41,8317.44 219.22,8323.54 211.33,8310.26 195.94,8311.68 192.54,8296.61 177.47,8293.2 178.89,8277.82 165.61,8269.93 171.71,8255.74 161.52,8244.13 171.71,8232.52 165.61,8218.32 178.89,8210.43 177.47,8195.05 192.54,8191.65 195.94,8176.57 211.33,8178 219.22,8164.71 233.41,8170.81 "/>
   <polygon fill="#B3B3B3" points="245.02,8660.63 256.63,8670.81 270.82,8664.71 278.71,8678 294.1,8676.57 297.5,8691.65 312.57,8695.05 311.15,8710.43 324.43,8718.32 318.33,8732.52 328.52,8744.13 318.33,8755.74 324.43,8769.93 311.15,8777.82 312.57,8793.2 297.5,8796.61 294.1,8811.68 278.71,8810.26 270.82,8823.54 256.63,8817.44 245.02,8827.63 233.41,8817.44 219.22,8823.54 211.33,8810.26 195.94,8811.68 192.54,8796.61 177.47,8793.2 178.89,8777.82 165.61,8769.93 171.71,8755.74 161.52,8744.13 171.71,8732.52 165.61,8718.32 178.89,8710.43 177.47,8695.05 192.54,8691.65 195.94,8676.57 211.33,8678 219.22,8664.71 233.41,8670.81 "/>
   <polygon fill="#B3B3B3" points="245.02,9160.63 256.63,9170.81 270.82,9164.71 278.71,9178 294.1,9176.57 297.5,9191.65 312.57,9195.05 311.15,9210.43 324.43,9218.32 318.33,9232.52 328.52,9244.13 318.33,9255.74 324.43,9269.93 311.15,9277.82 312.57,9293.2 297.5,9296.61 294.1,9311.68 278.71,9310.26 270.82,9323.54 256.63,9317.44 245.02,9327.63 233.41,9317.44 219.22,9323.54 211.33,9310.26 195.94,9311.68 192.54,9296.61 177.47,9293.2 178.89,9277.82 165.61,9269.93 171.71,9255.74 161.52,9244.13 171.71,9232.52 165.61,9218.32 178.89,9210.43 177.47,9195.05 192.54,9191.65 195.94,9176.57 211.33,9178 219.22,9164.71 233.41,9170.81 "/>
   <polygon fill="#B3B3B3" points="245.02,9660.63 256.63,9670.81 270.82,9664.71 278.71,9678 294.1,9676.57 297.5,9691.65 312.57,9695.05 311.15,9710.43 324.43,9718.32 318.33,9732.52 328.52,9744.13 318.33,9755.74 324.43,9769.93 311.15,9777.82 312.57,9793.2 297.5,9796.61 294.1,9811.68 278.71,9810.26 270.82,9823.54 256.63,9817.44 245.02,9827.63 233.41,9817.44 219.22,9823.54 211.33,9810.26 195.94,9811.68 192.54,9796.61 177.47,9793.2 178.89,9777.82 165.61,9769.93 171.71,9755.74 161.52,9744.13 171.71,9732.52 165.61,9718.32 178.89,9710.43 177.47,9695.05 192.54,9691.65 195.94,9676.57 211.33,9678 219.22,9664.71 233.41,9670.81 "/>
   <polygon fill="#B3B3B3" points="245.02,10160.63 256.63,10170.81 270.82,10164.71 278.71,10178 294.1,10176.57 297.5,10191.65 312.57,10195.05 311.15,10210.43 324.43,10218.32 318.33,10232.52 328.52,10244.13 318.33,10255.74 324.43,10269.93 311.15,10277.82 312.57,10293.2 297.5,10296.61 294.1,10311.68 278.71,10310.26 270.82,10323.54 256.63,10317.44 245.02,10327.63 233.41,10317.44 219.22,10323.54 211.33,10310.26 195.94,10311.68 192.54,10296.61 177.47,10293.2 178.89,10277.82 165.61,10269.93 171.71,10255.74 161.52,10244.13 171.71,10232.52 165.61,10218.32 178.89,10210.43 177.47,10195.05 192.54,10191.65 195.94,10176.57 211.33,10178 219.22,10164.71 233.41,10170.81 "/>
   <polygon fill="#B3B3B3" points="245.02,10660.63 256.63,10670.81 270.82,10664.71 278.71,10678 294.1,10676.57 297.5,10691.65 312.57,10695.05 311.15,10710.43 324.43,10718.32 318.33,10732.52 328.52,10744.13 318.33,10755.74 324.43,10769.93 311.15,10777.82 312.57,10793.2 297.5,10796.61 294.1,10811.68 278.71,10810.26 270.82,10823.54 256.63,10817.44 245.02,10827.63 233.41,10817.44 219.22,10823.54 211.33,10810.26 195.94,10811.68 192.54,10796.61 177.47,10793.2 178.89,10777.82 165.61,10769.93 171.71,10755.74 161.52,10744.13 171.71,10732.52 165.61,10718.32 178.89,10710.43 177.47,10695.05 192.54,10691.65 195.94,10676.57 211.33,10678 219.22,10664.71 233.41,10670.81 "/>
  </g>
  <g id="_2661694084448">
   <polygon fill="#B3B3B3" points="14745.52,160.63 14757.13,170.81 14771.32,164.71 14779.21,178 14794.6,176.57 14798,191.65 14813.07,195.05 14811.65,210.43 14824.93,218.32 14818.83,232.52 14829.02,244.13 14818.83,255.74 14824.93,269.93 14811.65,277.82 14813.07,293.2 14798,296.61 14794.6,311.68 14779.21,310.26 14771.32,323.54 14757.13,317.44 14745.52,327.63 14733.91,317.44 14719.72,323.54 14711.83,310.26 14696.44,311.68 14693.04,296.61 14677.97,293.2 14679.39,277.82 14666.11,269.93 14672.21,255.74 14662.02,244.13 14672.21,232.52 14666.11,218.32 14679.39,210.43 14677.97,195.05 14693.04,191.65 14696.44,176.57 14711.83,178 14719.72,164.71 14733.91,170.81 "/>
   <polygon fill="#B3B3B3" points="14745.52,660.63 14757.13,670.81 14771.32,664.71 14779.21,678 14794.6,676.57 14798,691.65 14813.07,695.05 14811.65,710.43 14824.93,718.32 14818.83,732.52 14829.02,744.13 14818.83,755.74 14824.93,769.93 14811.65,777.82 14813.07,793.2 14798,796.61 14794.6,811.68 14779.21,810.26 14771.32,823.54 14757.13,817.44 14745.52,827.63 14733.91,817.44 14719.72,823.54 14711.83,810.26 14696.44,811.68 14693.04,796.61 14677.97,793.2 14679.39,777.82 14666.11,769.93 14672.21,755.74 14662.02,744.13 14672.21,732.52 14666.11,718.32 14679.39,710.43 14677.97,695.05 14693.04,691.65 14696.44,676.57 14711.83,678 14719.72,664.71 14733.91,670.81 "/>
   <polygon fill="#B3B3B3" points="14745.52,1160.63 14757.13,1170.81 14771.32,1164.71 14779.21,1178 14794.6,1176.57 14798,1191.65 14813.07,1195.05 14811.65,1210.43 14824.93,1218.32 14818.83,1232.52 14829.02,1244.13 14818.83,1255.74 14824.93,1269.93 14811.65,1277.82 14813.07,1293.2 14798,1296.61 14794.6,1311.68 14779.21,1310.26 14771.32,1323.54 14757.13,1317.44 14745.52,1327.63 14733.91,1317.44 14719.72,1323.54 14711.83,1310.26 14696.44,1311.68 14693.04,1296.61 14677.97,1293.2 14679.39,1277.82 14666.11,1269.93 14672.21,1255.74 14662.02,1244.13 14672.21,1232.52 14666.11,1218.32 14679.39,1210.43 14677.97,1195.05 14693.04,1191.65 14696.44,1176.57 14711.83,1178 14719.72,1164.71 14733.91,1170.81 "/>
   <polygon fill="#B3B3B3" points="14745.52,1660.63 14757.13,1670.81 14771.32,1664.71 14779.21,1678 14794.6,1676.57 14798,1691.65 14813.07,1695.05 14811.65,1710.43 14824.93,1718.32 14818.83,1732.52 14829.02,1744.13 14818.83,1755.74 14824.93,1769.93 14811.65,1777.82 14813.07,1793.2 14798,1796.61 14794.6,1811.68 14779.21,1810.26 14771.32,1823.54 14757.13,1817.44 14745.52,1827.63 14733.91,1817.44 14719.72,1823.54 14711.83,1810.26 14696.44,1811.68 14693.04,1796.61 14677.97,1793.2 14679.39,1777.82 14666.11,1769.93 14672.21,1755.74 14662.02,1744.13 14672.21,1732.52 14666.11,1718.32 14679.39,1710.43 14677.97,1695.05 14693.04,1691.65 14696.44,1676.57 14711.83,1678 14719.72,1664.71 14733.91,1670.81 "/>
   <polygon fill="#B3B3B3" points="14745.52,2160.63 14757.13,2170.81 14771.32,2164.71 14779.21,2178 14794.6,2176.57 14798,2191.65 14813.07,2195.05 14811.65,2210.43 14824.93,2218.32 14818.83,2232.52 14829.02,2244.13 14818.83,2255.74 14824.93,2269.93 14811.65,2277.82 14813.07,2293.2 14798,2296.61 14794.6,2311.68 14779.21,2310.26 14771.32,2323.54 14757.13,2317.44 14745.52,2327.63 14733.91,2317.44 14719.72,2323.54 14711.83,2310.26 14696.44,2311.68 14693.04,2296.61 14677.97,2293.2 14679.39,2277.82 14666.11,2269.93 14672.21,2255.74 14662.02,2244.13 14672.21,2232.52 14666.11,2218.32 14679.39,2210.43 14677.97,2195.05 14693.04,2191.65 14696.44,2176.57 14711.83,2178 14719.72,2164.71 14733.91,2170.81 "/>
   <polygon fill="#B3B3B3" points="14745.52,2660.63 14757.13,2670.81 14771.32,2664.71 14779.21,2678 14794.6,2676.57 14798,2691.65 14813.07,2695.05 14811.65,2710.43 14824.93,2718.32 14818.83,2732.52 14829.02,2744.13 14818.83,2755.74 14824.93,2769.93 14811.65,2777.82 14813.07,2793.2 14798,2796.61 14794.6,2811.68 14779.21,2810.26 14771.32,2823.54 14757.13,2817.44 14745.52,2827.63 14733.91,2817.44 14719.72,2823.54 14711.83,2810.26 14696.44,2811.68 14693.04,2796.61 14677.97,2793.2 14679.39,2777.82 14666.11,2769.93 14672.21,2755.74 14662.02,2744.13 14672.21,2732.52 14666.11,2718.32 14679.39,2710.43 14677.97,2695.05 14693.04,2691.65 14696.44,2676.57 14711.83,2678 14719.72,2664.71 14733.91,2670.81 "/>
   <polygon fill="#B3B3B3" points="14745.52,3160.63 14757.13,3170.81 14771.32,3164.71 14779.21,3178 14794.6,3176.57 14798,3191.65 14813.07,3195.05 14811.65,3210.43 14824.93,3218.32 14818.83,3232.52 14829.02,3244.13 14818.83,3255.74 14824.93,3269.93 14811.65,3277.82 14813.07,3293.2 14798,3296.61 14794.6,3311.68 14779.21,3310.26 14771.32,3323.54 14757.13,3317.44 14745.52,3327.63 14733.91,3317.44 14719.72,3323.54 14711.83,3310.26 14696.44,3311.68 14693.04,3296.61 14677.97,3293.2 14679.39,3277.82 14666.11,3269.93 14672.21,3255.74 14662.02,3244.13 14672.21,3232.52 14666.11,3218.32 14679.39,3210.43 14677.97,3195.05 14693.04,3191.65 14696.44,3176.57 14711.83,3178 14719.72,3164.71 14733.91,3170.81 "/>
   <polygon fill="#B3B3B3" points="14745.52,3660.63 14757.13,3670.81 14771.32,3664.71 14779.21,3678 14794.6,3676.57 14798,3691.65 14813.07,3695.05 14811.65,3710.43 14824.93,3718.32 14818.83,3732.52 14829.02,3744.13 14818.83,3755.74 14824.93,3769.93 14811.65,3777.82 14813.07,3793.2 14798,3796.61 14794.6,3811.68 14779.21,3810.26 14771.32,3823.54 14757.13,3817.44 14745.52,3827.63 14733.91,3817.44 14719.72,3823.54 14711.83,3810.26 14696.44,3811.68 14693.04,3796.61 14677.97,3793.2 14679.39,3777.82 14666.11,3769.93 14672.21,3755.74 14662.02,3744.13 14672.21,3732.52 14666.11,3718.32 14679.39,3710.43 14677.97,3695.05 14693.04,3691.65 14696.44,3676.57 14711.83,3678 14719.72,3664.71 14733.91,3670.81 "/>
   <polygon fill="#B3B3B3" points="14745.52,4160.63 14757.13,4170.81 14771.32,4164.71 14779.21,4178 14794.6,4176.57 14798,4191.65 14813.07,4195.05 14811.65,4210.43 14824.93,4218.32 14818.83,4232.52 14829.02,4244.13 14818.83,4255.74 14824.93,4269.93 14811.65,4277.82 14813.07,4293.2 14798,4296.61 14794.6,4311.68 14779.21,4310.26 14771.32,4323.54 14757.13,4317.44 14745.52,4327.63 14733.91,4317.44 14719.72,4323.54 14711.83,4310.26 14696.44,4311.68 14693.04,4296.61 14677.97,4293.2 14679.39,4277.82 14666.11,4269.93 14672.21,4255.74 14662.02,4244.13 14672.21,4232.52 14666.11,4218.32 14679.39,4210.43 14677.97,4195.05 14693.04,4191.65 14696.44,4176.57 14711.83,4178 14719.72,4164.71 14733.91,4170.81 "/>
   <polygon fill="#B3B3B3" points="14745.52,4660.63 14757.13,4670.81 14771.32,4664.71 14779.21,4678 14794.6,4676.57 14798,4691.65 14813.07,4695.05 14811.65,4710.43 14824.93,4718.32 14818.83,4732.52 14829.02,4744.13 14818.83,4755.74 14824.93,4769.93 14811.65,4777.82 14813.07,4793.2 14798,4796.61 14794.6,4811.68 14779.21,4810.26 14771.32,4823.54 14757.13,4817.44 14745.52,4827.63 14733.91,4817.44 14719.72,4823.54 14711.83,4810.26 14696.44,4811.68 14693.04,4796.61 14677.97,4793.2 14679.39,4777.82 14666.11,4769.93 14672.21,4755.74 14662.02,4744.13 14672.21,4732.52 14666.11,4718.32 14679.39,4710.43 14677.97,4695.05 14693.04,4691.65 14696.44,4676.57 14711.83,4678 14719.72,4664.71 14733.91,4670.81 "/>
   <polygon fill="#B3B3B3" points="14745.52,5160.63 14757.13,5170.81 14771.32,5164.71 14779.21,5178 14794.6,5176.57 14798,5191.65 14813.07,5195.05 14811.65,5210.43 14824.93,5218.32 14818.83,5232.52 14829.02,5244.13 14818.83,5255.74 14824.93,5269.93 14811.65,5277.82 14813.07,5293.2 14798,5296.61 14794.6,5311.68 14779.21,5310.26 14771.32,5323.54 14757.13,5317.44 14745.52,5327.63 14733.91,5317.44 14719.72,5323.54 14711.83,5310.26 14696.44,5311.68 14693.04,5296.61 14677.97,5293.2 14679.39,5277.82 14666.11,5269.93 14672.21,5255.74 14662.02,5244.13 14672.21,5232.52 14666.11,5218.32 14679.39,5210.43 14677.97,5195.05 14693.04,5191.65 14696.44,5176.57 14711.83,5178 14719.72,5164.71 14733.91,5170.81 "/>
   <polygon fill="#B3B3B3" points="14745.52,5660.63 14757.13,5670.81 14771.32,5664.71 14779.21,5678 14794.6,5676.57 14798,5691.65 14813.07,5695.05 14811.65,5710.43 14824.93,5718.32 14818.83,5732.52 14829.02,5744.13 14818.83,5755.74 14824.93,5769.93 14811.65,5777.82 14813.07,5793.2 14798,5796.61 14794.6,5811.68 14779.21,5810.26 14771.32,5823.54 14757.13,5817.44 14745.52,5827.63 14733.91,5817.44 14719.72,5823.54 14711.83,5810.26 14696.44,5811.68 14693.04,5796.61 14677.97,5793.2 14679.39,5777.82 14666.11,5769.93 14672.21,5755.74 14662.02,5744.13 14672.21,5732.52 14666.11,5718.32 14679.39,5710.43 14677.97,5695.05 14693.04,5691.65 14696.44,5676.57 14711.83,5678 14719.72,5664.71 14733.91,5670.81 "/>
   <polygon fill="#B3B3B3" points="14745.52,6160.63 14757.13,6170.81 14771.32,6164.71 14779.21,6178 14794.6,6176.57 14798,6191.65 14813.07,6195.05 14811.65,6210.43 14824.93,6218.32 14818.83,6232.52 14829.02,6244.13 14818.83,6255.74 14824.93,6269.93 14811.65,6277.82 14813.07,6293.2 14798,6296.61 14794.6,6311.68 14779.21,6310.26 14771.32,6323.54 14757.13,6317.44 14745.52,6327.63 14733.91,6317.44 14719.72,6323.54 14711.83,6310.26 14696.44,6311.68 14693.04,6296.61 14677.97,6293.2 14679.39,6277.82 14666.11,6269.93 14672.21,6255.74 14662.02,6244.13 14672.21,6232.52 14666.11,6218.32 14679.39,6210.43 14677.97,6195.05 14693.04,6191.65 14696.44,6176.57 14711.83,6178 14719.72,6164.71 14733.91,6170.81 "/>
   <polygon fill="#B3B3B3" points="14745.52,6660.63 14757.13,6670.81 14771.32,6664.71 14779.21,6678 14794.6,6676.57 14798,6691.65 14813.07,6695.05 14811.65,6710.43 14824.93,6718.32 14818.83,6732.52 14829.02,6744.13 14818.83,6755.74 14824.93,6769.93 14811.65,6777.82 14813.07,6793.2 14798,6796.61 14794.6,6811.68 14779.21,6810.26 14771.32,6823.54 14757.13,6817.44 14745.52,6827.63 14733.91,6817.44 14719.72,6823.54 14711.83,6810.26 14696.44,6811.68 14693.04,6796.61 14677.97,6793.2 14679.39,6777.82 14666.11,6769.93 14672.21,6755.74 14662.02,6744.13 14672.21,6732.52 14666.11,6718.32 14679.39,6710.43 14677.97,6695.05 14693.04,6691.65 14696.44,6676.57 14711.83,6678 14719.72,6664.71 14733.91,6670.81 "/>
   <polygon fill="#B3B3B3" points="14745.52,7160.63 14757.13,7170.81 14771.32,7164.71 14779.21,7178 14794.6,7176.57 14798,7191.65 14813.07,7195.05 14811.65,7210.43 14824.93,7218.32 14818.83,7232.52 14829.02,7244.13 14818.83,7255.74 14824.93,7269.93 14811.65,7277.82 14813.07,7293.2 14798,7296.61 14794.6,7311.68 14779.21,7310.26 14771.32,7323.54 14757.13,7317.44 14745.52,7327.63 14733.91,7317.44 14719.72,7323.54 14711.83,7310.26 14696.44,7311.68 14693.04,7296.61 14677.97,7293.2 14679.39,7277.82 14666.11,7269.93 14672.21,7255.74 14662.02,7244.13 14672.21,7232.52 14666.11,7218.32 14679.39,7210.43 14677.97,7195.05 14693.04,7191.65 14696.44,7176.57 14711.83,7178 14719.72,7164.71 14733.91,7170.81 "/>
   <polygon fill="#B3B3B3" points="14745.52,7660.63 14757.13,7670.81 14771.32,7664.71 14779.21,7678 14794.6,7676.57 14798,7691.65 14813.07,7695.05 14811.65,7710.43 14824.93,7718.32 14818.83,7732.52 14829.02,7744.13 14818.83,7755.74 14824.93,7769.93 14811.65,7777.82 14813.07,7793.2 14798,7796.61 14794.6,7811.68 14779.21,7810.26 14771.32,7823.54 14757.13,7817.44 14745.52,7827.63 14733.91,7817.44 14719.72,7823.54 14711.83,7810.26 14696.44,7811.68 14693.04,7796.61 14677.97,7793.2 14679.39,7777.82 14666.11,7769.93 14672.21,7755.74 14662.02,7744.13 14672.21,7732.52 14666.11,7718.32 14679.39,7710.43 14677.97,7695.05 14693.04,7691.65 14696.44,7676.57 14711.83,7678 14719.72,7664.71 14733.91,7670.81 "/>
   <polygon fill="#B3B3B3" points="14745.52,8160.63 14757.13,8170.81 14771.32,8164.71 14779.21,8178 14794.6,8176.57 14798,8191.65 14813.07,8195.05 14811.65,8210.43 14824.93,8218.32 14818.83,8232.52 14829.02,8244.13 14818.83,8255.74 14824.93,8269.93 14811.65,8277.82 14813.07,8293.2 14798,8296.61 14794.6,8311.68 14779.21,8310.26 14771.32,8323.54 14757.13,8317.44 14745.52,8327.63 14733.91,8317.44 14719.72,8323.54 14711.83,8310.26 14696.44,8311.68 14693.04,8296.61 14677.97,8293.2 14679.39,8277.82 14666.11,8269.93 14672.21,8255.74 14662.02,8244.13 14672.21,8232.52 14666.11,8218.32 14679.39,8210.43 14677.97,8195.05 14693.04,8191.65 14696.44,8176.57 14711.83,8178 14719.72,8164.71 14733.91,8170.81 "/>
   <polygon fill="#B3B3B3" points="14745.52,8660.63 14757.13,8670.81 14771.32,8664.71 14779.21,8678 14794.6,8676.57 14798,8691.65 14813.07,8695.05 14811.65,8710.43 14824.93,8718.32 14818.83,8732.52 14829.02,8744.13 14818.83,8755.74 14824.93,8769.93 14811.65,8777.82 14813.07,8793.2 14798,8796.61 14794.6,8811.68 14779.21,8810.26 14771.32,8823.54 14757.13,8817.44 14745.52,8827.63 14733.91,8817.44 14719.72,8823.54 14711.83,8810.26 14696.44,8811.68 14693.04,8796.61 14677.97,8793.2 14679.39,8777.82 14666.11,8769.93 14672.21,8755.74 14662.02,8744.13 14672.21,8732.52 14666.11,8718.32 14679.39,8710.43 14677.97,8695.05 14693.04,8691.65 14696.44,8676.57 14711.83,8678 14719.72,8664.71 14733.91,8670.81 "/>
   <polygon fill="#B3B3B3" points="14745.52,9160.63 14757.13,9170.81 14771.32,9164.71 14779.21,9178 14794.6,9176.57 14798,9191.65 14813.07,9195.05 14811.65,9210.43 14824.93,9218.32 14818.83,9232.52 14829.02,9244.13 14818.83,9255.74 14824.93,9269.93 14811.65,9277.82 14813.07,9293.2 14798,9296.61 14794.6,9311.68 14779.21,9310.26 14771.32,9323.54 14757.13,9317.44 14745.52,9327.63 14733.91,9317.44 14719.72,9323.54 14711.83,9310.26 14696.44,9311.68 14693.04,9296.61 14677.97,9293.2 14679.39,9277.82 14666.11,9269.93 14672.21,9255.74 14662.02,9244.13 14672.21,9232.52 14666.11,9218.32 14679.39,9210.43 14677.97,9195.05 14693.04,9191.65 14696.44,9176.57 14711.83,9178 14719.72,9164.71 14733.91,9170.81 "/>
   <polygon fill="#B3B3B3" points="14745.52,9660.63 14757.13,9670.81 14771.32,9664.71 14779.21,9678 14794.6,9676.57 14798,9691.65 14813.07,9695.05 14811.65,9710.43 14824.93,9718.32 14818.83,9732.52 14829.02,9744.13 14818.83,9755.74 14824.93,9769.93 14811.65,9777.82 14813.07,9793.2 14798,9796.61 14794.6,9811.68 14779.21,9810.26 14771.32,9823.54 14757.13,9817.44 14745.52,9827.63 14733.91,9817.44 14719.72,9823.54 14711.83,9810.26 14696.44,9811.68 14693.04,9796.61 14677.97,9793.2 14679.39,9777.82 14666.11,9769.93 14672.21,9755.74 14662.02,9744.13 14672.21,9732.52 14666.11,9718.32 14679.39,9710.43 14677.97,9695.05 14693.04,9691.65 14696.44,9676.57 14711.83,9678 14719.72,9664.71 14733.91,9670.81 "/>
   <polygon fill="#B3B3B3" points="14745.52,10160.63 14757.13,10170.81 14771.32,10164.71 14779.21,10178 14794.6,10176.57 14798,10191.65 14813.07,10195.05 14811.65,10210.43 14824.93,10218.32 14818.83,10232.52 14829.02,10244.13 14818.83,10255.74 14824.93,10269.93 14811.65,10277.82 14813.07,10293.2 14798,10296.61 14794.6,10311.68 14779.21,10310.26 14771.32,10323.54 14757.13,10317.44 14745.52,10327.63 14733.91,10317.44 14719.72,10323.54 14711.83,10310.26 14696.44,10311.68 14693.04,10296.61 14677.97,10293.2 14679.39,10277.82 14666.11,10269.93 14672.21,10255.74 14662.02,10244.13 14672.21,10232.52 14666.11,10218.32 14679.39,10210.43 14677.97,10195.05 14693.04,10191.65 14696.44,10176.57 14711.83,10178 14719.72,10164.71 14733.91,10170.81 "/>
   <polygon fill="#B3B3B3" points="14745.52,10660.63 14757.13,10670.81 14771.32,10664.71 14779.21,10678 14794.6,10676.57 14798,10691.65 14813.07,10695.05 14811.65,10710.43 14824.93,10718.32 14818.83,10732.52 14829.02,10744.13 14818.83,10755.74 14824.93,10769.93 14811.65,10777.82 14813.07,10793.2 14798,10796.61 14794.6,10811.68 14779.21,10810.26 14771.32,10823.54 14757.13,10817.44 14745.52,10827.63 14733.91,10817.44 14719.72,10823.54 14711.83,10810.26 14696.44,10811.68 14693.04,10796.61 14677.97,10793.2 14679.39,10777.82 14666.11,10769.93 14672.21,10755.74 14662.02,10744.13 14672.21,10732.52 14666.11,10718.32 14679.39,10710.43 14677.97,10695.05 14693.04,10691.65 14696.44,10676.57 14711.83,10678 14719.72,10664.71 14733.91,10670.81 "/>
  </g>
 </g>
 <g id="Blue">
  <metadata id="CorelCorpID_1Corel-Layer"/>
  <g id="_2661694143616">
   <g>
    <path fill="#00CCFF" fill-opacity="0.200000" d="M496.02 10661.86l14000 0 0 86.67c0,44 -36,80 -80,80l-13840 0c-44,0 -80,-36 -80,-80l0 -86.67z"/>
    <path id="1" fill="none" stroke="#00CCFF" stroke-width="7.87" stroke-miterlimit="22.9256" d="M496.02 10661.86l14000 0 0 86.67c0,44 -36,80 -80,80l-13840 0c-44,0 -80,-36 -80,-80l0 -86.67z"/>
   </g>
   <g>
    <polygon fill="#00CCFF" fill-opacity="0.200000" points="496.02,10328.52 14496.02,10328.52 14496.02,10495.19 496.02,10495.19 "/>
    <polygon id="1" fill="none" stroke="#00CCFF" stroke-width="7.87" stroke-miterlimit="22.9256" points="496.02,10328.52 14496.02,10328.52 14496.02,10495.19 496.02,10495.19 "/>
   </g>
   <g>
    <polygon fill="#00CCFF" fill-opacity="0.200000" points="496.02,9995.19 14496.02,9995.19 14496.02,10161.85 496.02,10161.85 "/>
    <polygon id="1" fill="none" stroke="#00CCFF" stroke-width="7.87" stroke-miterlimit="22.9256" points="496.02,9995.19 14496.02,9995.19 14496.02,10161.85 496.02,10161.85 "/>
   </g>
   <g>
    <polygon fill="#00CCFF" fill-opacity="0.200000" points="496.02,9661.85 14496.02,9661.85 14496.02,9828.52 496.02,9828.52 "/>
    <polygon id="1" fill="none" stroke="#00CCFF" stroke-width="7.87" stroke-miterlimit="22.9256" points="496.02,9661.85 14496.02,9661.85 14496.02,9828.52 496.02,9828.52 "/>
   </g>
   <g>
    <polygon fill="#00CCFF" fill-opacity="0.200000" points="496.02,9328.52 14496.02,9328.52 14496.02,9495.19 496.02,9495.19 "/>
    <polygon id="1" fill="none" stroke="#00CCFF" stroke-width="7.87" stroke-miterlimit="22.9256" points="496.02,9328.52 14496.02,9328.52 14496.02,9495.19 496.02,9495.19 "/>
   </g>
   <g>
    <polygon fill="#00CCFF" fill-opacity="0.200000" points="496.02,8995.19 14496.02,8995.19 14496.02,9161.85 496.02,9161.85 "/>
    <polygon id="1" fill="none" stroke="#00CCFF" stroke-width="7.87" stroke-miterlimit="22.9256" points="496.02,8995.19 14496.02,8995.19 14496.02,9161.85 496.02,9161.85 "/>
   </g>
   <g>
    <polygon fill="#00CCFF" fill-opacity="0.200000" points="496.02,8661.85 14496.02,8661.85 14496.02,8828.52 496.02,8828.52 "/>
    <polygon id="1" fill="none" stroke="#00CCFF" stroke-width="7.87" stroke-miterlimit="22.9256" points="496.02,8661.85 14496.02,8661.85 14496.02,8828.52 496.02,8828.52 "/>
   </g>
   <g>
    <polygon fill="#00CCFF" fill-opacity="0.200000" points="496.02,8328.52 14496.02,8328.52 14496.02,8495.18 496.02,8495.18 "/>
    <polygon id="1" fill="none" stroke="#00CCFF" stroke-width="7.87" stroke-miterlimit="22.9256" points="496.02,8328.52 14496.02,8328.52 14496.02,8495.18 496.02,8495.18 "/>
   </g>
   <g>
    <polygon fill="#00CCFF" fill-opacity="0.200000" points="496.02,7995.18 14496.02,7995.18 14496.02,8161.85 496.02,8161.85 "/>
    <polygon id="1" fill="none" stroke="#00CCFF" stroke-width="7.87" stroke-miterlimit="22.9256" points="496.02,7995.18 14496.02,7995.18 14496.02,8161.85 496.02,8161.85 "/>
   </g>
   <g>
    <polygon fill="#00CCFF" fill-opacity="0.200000" points="496.02,7661.85 14496.02,7661.85 14496.02,7828.51 496.02,7828.51 "/>
    <polygon id="1" fill="none" stroke="#00CCFF" stroke-width="7.87" stroke-miterlimit="22.9256" points="496.02,7661.85 14496.02,7661.85 14496.02,7828.51 496.02,7828.51 "/>
   </g>
   <g>
    <polygon fill="#00CCFF" fill-opacity="0.200000" points="496.02,7328.51 14496.02,7328.51 14496.02,7495.18 496.02,7495.18 "/>
    <polygon id="1" fill="none" stroke="#00CCFF" stroke-width="7.87" stroke-miterlimit="22.9256" points="496.02,7328.51 14496.02,7328.51 14496.02,7495.18 496.02,7495.18 "/>
   </g>
   <g>
    <polygon fill="#00CCFF" fill-opacity="0.200000" points="496.02,6995.18 14496.02,6995.18 14496.02,7161.84 496.02,7161.84 "/>
    <polygon id="1" fill="none" stroke="#00CCFF" stroke-width="7.87" stroke-miterlimit="22.9256" points="496.02,6995.18 14496.02,6995.18 14496.02,7161.84 496.02,7161.84 "/>
   </g>
   <g>
    <polygon fill="#00CCFF" fill-opacity="0.200000" points="496.02,6661.84 14496.02,6661.84 14496.02,6828.51 496.02,6828.51 "/>
    <polygon id="1" fill="none" stroke="#00CCFF" stroke-width="7.87" stroke-miterlimit="22.9256" points="496.02,6661.84 14496.02,6661.84 14496.02,6828.51 496.02,6828.51 "/>
   </g>
   <g>
    <polygon fill="#00CCFF" fill-opacity="0.200000" points="496.02,6328.51 14496.02,6328.51 14496.02,6495.17 496.02,6495.17 "/>
    <polygon id="1" fill="none" stroke="#00CCFF" stroke-width="7.87" stroke-miterlimit="22.9256" points="496.02,6328.51 14496.02,6328.51 14496.02,6495.17 496.02,6495.17 "/>
   </g>
   <g>
    <polygon fill="#00CCFF" fill-opacity="0.200000" points="496.02,5995.17 14496.02,5995.17 14496.02,6161.84 496.02,6161.84 "/>
    <polygon id="1" fill="none" stroke="#00CCFF" stroke-width="7.87" stroke-miterlimit="22.9256" points="496.02,5995.17 14496.02,5995.17 14496.02,6161.84 496.02,6161.84 "/>
   </g>
   <g>
    <polygon fill="#00CCFF" fill-opacity="0.200000" points="496.02,5661.84 14496.02,5661.84 14496.02,5828.5 496.02,5828.5 "/>
    <polygon id="1" fill="none" stroke="#00CCFF" stroke-width="7.87" stroke-miterlimit="22.9256" points="496.02,5661.84 14496.02,5661.84 14496.02,5828.5 496.02,5828.5 "/>
   </g>
   <g>
    <polygon fill="#00CCFF" fill-opacity="0.200000" points="496.02,5328.5 14496.02,5328.5 14496.02,5495.17 496.02,5495.17 "/>
    <polygon id="1" fill="none" stroke="#00CCFF" stroke-width="7.87" stroke-miterlimit="22.9256" points="496.02,5328.5 14496.02,5328.5 14496.02,5495.17 496.02,5495.17 "/>
   </g>
   <g>
    <polygon fill="#00CCFF" fill-opacity="0.200000" points="496.02,4995.17 14496.02,4995.17 14496.02,5161.83 496.02,5161.83 "/>
    <polygon id="1" fill="none" stroke="#00CCFF" stroke-width="7.87" stroke-miterlimit="22.9256" points="496.02,4995.17 14496.02,4995.17 14496.02,5161.83 496.02,5161.83 "/>
   </g>
   <g>
    <polygon fill="#00CCFF" fill-opacity="0.200000" points="496.02,4661.83 14496.02,4661.83 14496.02,4828.5 496.02,4828.5 "/>
    <polygon id="1" fill="none" stroke="#00CCFF" stroke-width="7.87" stroke-miterlimit="22.9256" points="496.02,4661.83 14496.02,4661.83 14496.02,4828.5 496.02,4828.5 "/>
   </g>
   <g>
    <polygon fill="#00CCFF" fill-opacity="0.200000" points="496.02,4328.5 14496.02,4328.5 14496.02,4495.17 496.02,4495.17 "/>
    <polygon id="1" fill="none" stroke="#00CCFF" stroke-width="7.87" stroke-miterlimit="22.9256" points="496.02,4328.5 14496.02,4328.5 14496.02,4495.17 496.02,4495.17 "/>
   </g>
   <g>
    <polygon fill="#00CCFF" fill-opacity="0.200000" points="496.02,3995.17 14496.02,3995.17 14496.02,4161.83 496.02,4161.83 "/>
    <polygon id="1" fill="none" stroke="#00CCFF" stroke-width="7.87" stroke-miterlimit="22.9256" points="496.02,3995.17 14496.02,3995.17 14496.02,4161.83 496.02,4161.83 "/>
   </g>
   <g>
    <polygon fill="#00CCFF" fill-opacity="0.200000" points="496.02,3661.83 14496.02,3661.83 14496.02,3828.5 496.02,3828.5 "/>
    <polygon id="1" fill="none" stroke="#00CCFF" stroke-width="7.87" stroke-miterlimit="22.9256" points="496.02,3661.83 14496.02,3661.83 14496.02,3828.5 496.02,3828.5 "/>
   </g>
   <g>
    <polygon fill="#00CCFF" fill-opacity="0.200000" points="496.02,3328.5 14496.02,3328.5 14496.02,3495.16 496.02,3495.16 "/>
    <polygon id="1" fill="none" stroke="#00CCFF" stroke-width="7.87" stroke-miterlimit="22.9256" points="496.02,3328.5 14496.02,3328.5 14496.02,3495.16 496.02,3495.16 "/>
   </g>
   <g>
    <polygon fill="#00CCFF" fill-opacity="0.200000" points="496.02,2995.16 14496.02,2995.16 14496.02,3161.83 496.02,3161.83 "/>
    <polygon id="1" fill="none" stroke="#00CCFF" stroke-width="7.87" stroke-miterlimit="22.9256" points="496.02,2995.16 14496.02,2995.16 14496.02,3161.83 496.02,3161.83 "/>
   </g>
   <g>
    <polygon fill="#00CCFF" fill-opacity="0.200000" points="496.02,2661.83 14496.02,2661.83 14496.02,2828.49 496.02,2828.49 "/>
    <polygon id="1" fill="none" stroke="#00CCFF" stroke-width="7.87" stroke-miterlimit="22.9256" points="496.02,2661.83 14496.02,2661.83 14496.02,2828.49 496.02,2828.49 "/>
   </g>
   <g>
    <polygon fill="#00CCFF" fill-opacity="0.200000" points="496.02,2328.49 14496.02,2328.49 14496.02,2495.16 496.02,2495.16 "/>
    <polygon id="1" fill="none" stroke="#00CCFF" stroke-width="7.87" stroke-miterlimit="22.9256" points="496.02,2328.49 14496.02,2328.49 14496.02,2495.16 496.02,2495.16 "/>
   </g>
   <g>
    <polygon fill="#00CCFF" fill-opacity="0.200000" points="496.02,1995.16 14496.02,1995.16 14496.02,2161.82 496.02,2161.82 "/>
    <polygon id="1" fill="none" stroke="#00CCFF" stroke-width="7.87" stroke-miterlimit="22.9256" points="496.02,1995.16 14496.02,1995.16 14496.02,2161.82 496.02,2161.82 "/>
   </g>
   <g>
    <polygon fill="#00CCFF" fill-opacity="0.200000" points="496.02,1661.82 14496.02,1661.82 14496.02,1828.49 496.02,1828.49 "/>
    <polygon id="1" fill="none" stroke="#00CCFF" stroke-width="7.87" stroke-miterlimit="22.9256" points="496.02,1661.82 14496.02,1661.82 14496.02,1828.49 496.02,1828.49 "/>
   </g>
   <g>
    <polygon fill="#00CCFF" fill-opacity="0.200000" points="496.02,1328.49 14496.02,1328.49 14496.02,1495.15 496.02,1495.15 "/>
    <polygon id="1" fill="none" stroke="#00CCFF" stroke-width="7.87" stroke-miterlimit="22.9256" points="496.02,1328.49 14496.02,1328.49 14496.02,1495.15 496.02,1495.15 "/>
   </g>
   <g>
    <polygon fill="#00CCFF" fill-opacity="0.200000" points="496.02,995.15 14496.02,995.15 14496.02,1161.82 496.02,1161.82 "/>
    <polygon id="1" fill="none" stroke="#00CCFF" stroke-width="7.87" stroke-miterlimit="22.9256" points="496.02,995.15 14496.02,995.15 14496.02,1161.82 496.02,1161.82 "/>
   </g>
   <rect fill="none" stroke="#00CCFF" stroke-width="7.87" stroke-miterlimit="22.9256" x="496.02" y="828.52" width="14000" height="10000" rx="127.63" ry="80"/>
  </g>
 </g>
</svg>
